
<svg xmlns="http://www.w3.org/2000/svg" version="1.1" xmlns:xlink="http://www.w3.org/1999/xlink" preserveAspectRatio="none" x="0px" y="0px" width="300px" height="300px" viewBox="0 0 300 300">
<defs>
<g id="Layer0_0_FILL">
<path fill="#000000" stroke="none" d="
M 311 937.05
Q 310.25 936.3 309.2 936.3
L 124.65 936.3
Q 123.6 936.3 122.8 937.05 122.05 937.85 122.05 938.9
L 122.05 938.95
Q 122.05 940 122.8 940.75 123.6 941.55 124.65 941.55
L 140.55 941.55 140.55 988.75 179.75 988.75
Q 182.496875 993.1048828125 189.25 996.6 200.65 1002.5 216.75 1002.5 232.85 1002.5 244.25 996.6 251.003125 993.1048828125 253.75 988.75
L 293.3 988.75 293.3 941.55 309.2 941.55
Q 310.25 941.55 311 940.75 311.8 940 311.8 938.95
L 311.8 938.9
Q 311.8 937.85 311 937.05
M 194 951.15
Q 196.65 951.15 199.2 952.4 201.7 953.65 203.6 956 206.65 959.75 206.65 964.55 206.65 966.95 205.85 969.2 205.05 971.45 203.5 973.3 201.65 975.55 199.05 976.85 196.5 978.1 193.65 978.1 190.9 978.1 188.35 976.85 185.8 975.65 184 973.4 182.55 971.65 181.75 969.4 181 967.2 181 964.8 181 961.6 182.25 958.95 183.5 956.2 185.9 954.2 187.7 952.75 189.8 951.95 191.85 951.15 194 951.15
M 178.5 951.8
L 178.5 952.2
Q 177.5 952.3 176.9 952.5 176.25 952.75 175.75 953.3 175.2 953.9 175.05 954.85 174.8 955.75 174.8 957.7
L 174.8 971.55
Q 174.8 973.45 175.05 974.4 175.2 975.3 175.75 975.95 176.25 976.45 176.9 976.7 177.5 976.95 178.5 977
L 178.5 977.45 167.3 977.45 167.3 977
Q 168.35 976.95 168.95 976.7 169.55 976.45 170.05 975.95 170.6 975.35 170.8 974.4 171 973.5 171 971.55
L 171 964.6 158.6 964.6 158.6 971.55
Q 158.6 973.45 158.8 974.4 159 975.35 159.55 975.95 160 976.45 160.65 976.7 161.25 976.95 162.25 977
L 162.25 977.45 151.1 977.45 151.1 977
Q 152.1 976.95 152.75 976.7 153.35 976.45 153.85 975.95 154.4 975.35 154.6 974.4 154.8 973.5 154.8 971.55
L 154.8 957.7
Q 154.8 955.75 154.6 954.85 154.4 953.9 153.85 953.3 153.35 952.75 152.75 952.5 152.1 952.3 151.1 952.2
L 151.1 951.8 162.25 951.8 162.25 952.2
Q 161.25 952.3 160.65 952.5 160.05 952.75 159.55 953.3 159 953.9 158.8 954.85 158.6 955.75 158.6 957.7
L 158.6 963.75 171 963.75 171 957.7
Q 171 955.75 170.8 954.85 170.6 953.9 170.05 953.3 169.55 952.75 168.95 952.5 168.35 952.3 167.3 952.2
L 167.3 951.8 178.5 951.8
M 233.75 952.2
L 233.75 951.8 252.55 951.8 252.85 958 252.45 958
Q 252.2 956.45 251.7 955.4 251.15 954.35 250.15 953.55 249.35 952.9 248.2 952.65 247.1 952.35 245.25 952.35
L 241.25 952.35 241.25 963.65 242.3 963.65
Q 243.9 963.65 244.7 963.4 245.5 963.2 246 962.6 246.5 962.05 246.75 961.35 246.95 960.6 247.1 959.15
L 247.5 959.15 247.45 969.25 247.05 969.25
Q 246.9 967.8 246.6 966.9 246.3 966 245.75 965.4 245.2 964.8 244.4 964.5 243.55 964.25 242.25 964.25
L 241.25 964.25 241.25 968.55
Q 241.25 971.1 241.35 972.3 241.5 973.45 241.85 974.25 242.45 975.6 243.65 976.25 244.85 976.85 246.85 976.85 248.95 976.85 250.35 976.3 251.8 975.7 252.7 974.5 253.3 973.7 253.7 972.65 254.1 971.65 254.45 969.95
L 254.85 969.95 254.6 977.45 233.75 977.45 233.75 977
Q 234.75 976.95 235.4 976.7 236 976.45 236.5 975.95 237 975.35 237.25 974.4 237.45 973.45 237.45 971.55
L 237.45 957.7
Q 237.45 955.75 237.25 954.85 237 953.9 236.5 953.3 236 952.75 235.4 952.5 234.75 952.3 233.75 952.2
M 232.7 958.7
L 232.3 958.75
Q 231.85 956.15 230.85 954.8 229.85 953.45 227.9 952.9 226.3 952.35 222.4 952.35
L 222.4 971.55
Q 222.4 973.45 222.6 974.4 222.8 975.35 223.35 975.95 223.85 976.45 224.45 976.7 225.05 976.95 226.05 977
L 226.05 977.45 214.9 977.45 214.9 977
Q 215.9 976.95 216.55 976.7 217.15 976.45 217.65 975.95 218.2 975.35 218.4 974.4 218.6 973.5 218.6 971.55
L 218.6 952.35
Q 217.5 952.35 216.25 952.45 213.55 952.6 212.25 953.2 210.9 953.75 210.05 955.2 209.25 956.5 208.85 958.75
L 208.45 958.7 208.75 951.8 232.4 951.8 232.7 958.7
M 263.75 954.8
Q 263.55 955.7 263.55 957.7
L 263.55 968.55
Q 263.55 971.05 263.65 972.25 263.8 973.5 264.15 974.25 264.75 975.6 265.95 976.25 267.15 976.85 269.15 976.85 271.25 976.85 272.65 976.3 274.1 975.7 275 974.45 275.6 973.6 276 972.5 276.4 971.45 276.75 969.7
L 277.15 969.75 276.9 977.45 256.05 977.45 256.05 977
Q 257.8 977 258.8 975.95 259.3 975.35 259.55 974.4 259.75 973.45 259.75 971.55
L 259.75 957.7
Q 259.75 955.7 259.5 954.75 259.3 953.8 258.7 953.2 258.2 952.7 257.6 952.5 257 952.25 256.05 952.2
L 256.05 951.8 267.2 951.8 267.2 952.2
Q 266.25 952.3 265.65 952.5 265.05 952.75 264.55 953.2 263.95 953.85 263.75 954.8
M 197.05 952.45
Q 195.65 951.75 193.8 951.75 191.95 951.75 190.6 952.45 189.25 953.1 188.1 954.7 186.7 956.55 185.95 959.25 185.2 961.95 185.2 965.1 185.2 970.55 187.95 974.25 189.2 975.95 190.6 976.7 192 977.45 193.8 977.45 195.65 977.45 197.05 976.7 198.4 975.95 199.65 974.25 202.45 970.5 202.45 965 202.45 961.95 201.7 959.25 200.9 956.55 199.55 954.7 198.4 953.15 197.05 952.45
M 233.55 910.25
Q 230.35 913.5 229.8 917.75
L 229.8 930.45 256.2 930.45 256.2 917.75
Q 255.6 913.5 252.35 910.25 248.5 906.35 242.95 906.35 237.45 906.35 233.55 910.25
M 180.35 816.6
Q 179.65 817.35 179.65 818.4
L 179.65 845.85 168.75 845.85
Q 158.75 845.85 158.75 855.85
L 158.75 930.55 205.15 930.55 205.15 855.85
Q 205.15 845.85 195.15 845.85
L 184.65 845.85 184.65 818.4
Q 184.65 817.35 183.9 816.6 183.2 815.9 182.15 815.9 181.1 815.9 180.35 816.6
M 188.15 858.9
L 194 858.9 194 871.5 188.15 871.5 188.15 858.9
M 170 858.9
L 175.85 858.9 175.85 871.5 170 871.5 170 858.9
M 170 880.55
L 175.85 880.55 175.85 893.15 170 893.15 170 880.55
M 188.15 880.55
L 194 880.55 194 893.15 188.15 893.15 188.15 880.55
M 188.15 903.2
L 194 903.2 194 915.8 188.15 915.8 188.15 903.2
M 170 903.2
L 175.85 903.2 175.85 915.8 170 915.8 170 903.2
M 275.7 810.25
Q 275.7 800.25 265.7 800.25
L 220.75 800.25
Q 210.75 800.25 210.75 810.25
L 210.75 930.45 223.9 930.45 223.85 916.65
Q 224.7150390625 910.4259765625 229.35 905.75 235.05 900.1 243.05 900.1 251.05 900.1 256.7 905.75 261.376171875 910.426171875 262.2 916.65
L 262.25 930.45 275.7 930.45 275.7 810.25
M 257.55 833.25
L 263.4 833.25 263.4 845.85 257.55 845.85 257.55 833.25
M 257.55 811.9
L 263.4 811.9 263.4 824.5 257.55 824.5 257.55 811.9
M 245.95 811.9
L 245.95 824.5 240.1 824.5 240.1 811.9 245.95 811.9
M 257.55 890.75
L 257.55 878.15 263.4 878.15 263.4 890.75 257.55 890.75
M 245.95 878.15
L 245.95 890.75 240.1 890.75 240.1 878.15 245.95 878.15
M 263.4 868.7
L 257.55 868.7 257.55 856.1 263.4 856.1 263.4 868.7
M 245.95 856.1
L 245.95 868.7 240.1 868.7 240.1 856.1 245.95 856.1
M 245.95 833.25
L 245.95 845.85 240.1 845.85 240.1 833.25 245.95 833.25
M 222.25 811.9
L 228.1 811.9 228.1 824.5 222.25 824.5 222.25 811.9
M 222.25 833.25
L 228.1 833.25 228.1 845.85 222.25 845.85 222.25 833.25
M 222.25 890.75
L 222.25 878.15 228.1 878.15 228.1 890.75 222.25 890.75
M 228.1 856.1
L 228.1 868.7 222.25 868.7 222.25 856.1 228.1 856.1 Z"/>
</g>
</defs>

<g id="_____1">
<g transform="matrix( 1.21612548828125, 0, 0, 1.21612548828125, -113.3,-946.6) ">
<use xlink:href="#Layer0_0_FILL"/>
</g>
</g>
</svg>
