
<svg xmlns="http://www.w3.org/2000/svg" version="1.1" xmlns:xlink="http://www.w3.org/1999/xlink" preserveAspectRatio="none" x="0px" y="0px" width="300px" height="300px" viewBox="0 0 300 300">
<defs>
<g id="Layer0_0_FILL">
<path fill="#333333" stroke="none" d="
M 106.05 46.5
Q 105.2 47.4 105.2 48.7
L 105.2 82.05 91.9 82.05
Q 79.75 82.05 79.75 94.2
L 79.75 185.05 136.2 185.05 136.2 94.2
Q 136.2 82.05 124.05 82.05
L 111.25 82.05 111.25 48.7
Q 111.25 47.4 110.35 46.5 109.5 45.65 108.2 45.65 106.95 45.65 106.05 46.5
M 93.45 97.95
L 100.55 97.95 100.55 113.25 93.45 113.25 93.45 97.95
M 115.5 97.95
L 122.65 97.95 122.65 113.25 115.5 113.25 115.5 97.95
M 122.65 124.25
L 122.65 139.6 115.5 139.6 115.5 124.25 122.65 124.25
M 93.45 124.25
L 100.55 124.25 100.55 139.6 93.45 139.6 93.45 124.25
M 93.45 151.8
L 100.55 151.8 100.55 167.15 93.45 167.15 93.45 151.8
M 115.5 167.15
L 115.5 151.8 122.65 151.8 122.65 167.15 115.5 167.15
M 264.9 192.95
Q 264 192.05 262.75 192.05
L 38.3 192.05
Q 37 192.05 36.05 192.95 35.15 193.95 35.15 195.2
L 35.15 195.3
Q 35.15 196.55 36.05 197.45 37 198.45 38.3 198.45
L 57.65 198.45 57.65 255.85 105.3 255.85
Q 108.65 261.15 116.85 265.4 130.7 272.55 150.3 272.55 169.85 272.55 183.75 265.4 191.95 261.15 195.3 255.85
L 243.4 255.85 243.4 198.45 262.75 198.45
Q 264 198.45 264.9 197.45 265.9 196.55 265.9 195.3
L 265.9 195.2
Q 265.9 193.95 264.9 192.95
M 152.55 211.6
Q 151.2 211.6 149.7 211.7 146.4 211.9 144.8 212.6 143.2 213.3 142.15 215.05 141.15 216.6 140.7 219.35
L 140.2 219.3 140.55 210.9 169.35 210.9 169.7 219.3 169.2 219.35
Q 168.65 216.2 167.45 214.55 166.25 212.9 163.85 212.25 161.9 211.6 157.15 211.6
L 157.15 234.95
Q 157.15 237.25 157.4 238.4 157.65 239.55 158.3 240.3 158.95 240.9 159.65 241.2 160.4 241.5 161.6 241.55
L 161.6 242.1 148.05 242.1 148.05 241.55
Q 149.25 241.5 150.05 241.2 150.8 240.9 151.4 240.3 152.05 239.55 152.3 238.4 152.55 237.3 152.55 234.95
L 152.55 211.6
M 122.65 210.1
Q 125.85 210.1 128.95 211.65 132 213.15 134.3 216 138 220.6 138 226.4 138 229.35 137.05 232.05 136.05 234.8 134.2 237.05 131.95 239.8 128.75 241.35 125.65 242.9 122.2 242.9 118.85 242.9 115.75 241.35 112.65 239.9 110.45 237.2 108.7 235.05 107.75 232.3 106.8 229.65 106.8 226.7 106.8 222.85 108.35 219.6 109.85 216.25 112.8 213.85 114.95 212.05 117.5 211.1 120 210.1 122.65 210.1
M 103.8 210.9
L 103.8 211.4
Q 102.55 211.5 101.85 211.75 101.05 212.05 100.45 212.75 99.75 213.45 99.6 214.6 99.3 215.7 99.3 218.1
L 99.3 234.95
Q 99.3 237.25 99.6 238.4 99.75 239.5 100.45 240.3 101.05 240.9 101.85 241.2 102.55 241.5 103.8 241.55
L 103.8 242.1 90.15 242.1 90.15 241.55
Q 91.45 241.5 92.15 241.2 92.9 240.9 93.5 240.3 94.15 239.55 94.4 238.4 94.65 237.3 94.65 234.95
L 94.65 226.45 79.6 226.45 79.6 234.95
Q 79.6 237.25 79.8 238.4 80.05 239.55 80.75 240.3 81.3 240.9 82.05 241.2 82.8 241.5 84 241.55
L 84 242.1 70.45 242.1 70.45 241.55
Q 71.65 241.5 72.45 241.2 73.2 240.9 73.8 240.3 74.45 239.55 74.7 238.4 74.95 237.3 74.95 234.95
L 74.95 218.1
Q 74.95 215.7 74.7 214.6 74.45 213.45 73.8 212.75 73.2 212.05 72.45 211.75 71.65 211.5 70.45 211.4
L 70.45 210.9 84 210.9 84 211.4
Q 82.8 211.5 82.05 211.75 81.35 212.05 80.75 212.75 80.05 213.45 79.8 214.6 79.6 215.7 79.6 218.1
L 79.6 225.45 94.65 225.45 94.65 218.1
Q 94.65 215.7 94.4 214.6 94.15 213.45 93.5 212.75 92.9 212.05 92.15 211.75 91.45 211.5 90.15 211.4
L 90.15 210.9 103.8 210.9
M 207.45 214.55
Q 207.2 215.65 207.2 218.1
L 207.2 231.3
Q 207.2 234.3 207.35 235.8 207.5 237.3 207.95 238.2 208.65 239.85 210.15 240.65 211.6 241.35 214 241.35 216.55 241.35 218.3 240.7 220.05 239.95 221.15 238.45 221.85 237.4 222.35 236.1 222.85 234.8 223.25 232.7
L 223.75 232.75 223.45 242.1 198.1 242.1 198.1 241.55
Q 200.2 241.55 201.45 240.3 202.05 239.55 202.35 238.4 202.6 237.25 202.6 234.95
L 202.6 218.1
Q 202.6 215.65 202.3 214.5 202.05 213.35 201.3 212.6 200.7 212 199.95 211.75 199.25 211.45 198.1 211.4
L 198.1 210.9 211.65 210.9 211.65 211.4
Q 210.5 211.5 209.75 211.75 209.05 212.05 208.45 212.6 207.7 213.4 207.45 214.55
M 188.55 211.95
Q 187.2 211.6 184.95 211.6
L 180.1 211.6 180.1 225.3 181.35 225.3
Q 183.3 225.3 184.3 225 185.25 224.75 185.85 224.05 186.45 223.35 186.8 222.5 187 221.6 187.2 219.85
L 187.7 219.85 187.65 232.15 187.15 232.15
Q 186.95 230.35 186.6 229.25 186.25 228.2 185.55 227.45 184.9 226.7 183.9 226.35 182.9 226.05 181.3 226.05
L 180.1 226.05 180.1 231.3
Q 180.1 234.4 180.2 235.85 180.4 237.25 180.8 238.2 181.55 239.85 183 240.65 184.45 241.35 186.9 241.35 189.45 241.35 191.15 240.7 192.9 239.95 194 238.5 194.75 237.55 195.25 236.25 195.7 235.05 196.15 233
L 196.65 233 196.35 242.1 170.95 242.1 170.95 241.55
Q 172.2 241.5 173 241.2 173.7 240.9 174.3 240.3 174.9 239.55 175.25 238.4 175.45 237.25 175.45 234.95
L 175.45 218.1
Q 175.45 215.7 175.25 214.6 174.9 213.45 174.3 212.75 173.7 212.05 173 211.75 172.2 211.5 170.95 211.4
L 170.95 210.9 193.85 210.9 194.2 218.45 193.7 218.45
Q 193.4 216.55 192.8 215.3 192.15 214 190.9 213.05 189.95 212.25 188.55 211.95
M 126.35 211.7
Q 124.65 210.85 122.4 210.85 120.15 210.85 118.5 211.7 116.85 212.5 115.45 214.45 113.75 216.7 112.85 219.95 111.95 223.25 111.95 227.1 111.95 233.7 115.25 238.2 116.8 240.3 118.5 241.2 120.2 242.1 122.4 242.1 124.65 242.1 126.35 241.2 128 240.3 129.5 238.2 132.9 233.65 132.9 226.95 132.9 223.25 132 219.95 131 216.7 129.4 214.45 128 212.55 126.35 211.7
M 170.75 160.4
Q 166.85 164.35 166.15 169.5
L 166.15 184.95 198.25 184.95 198.25 169.5
Q 197.55 164.35 193.6 160.4 188.9 155.65 182.15 155.65 175.45 155.65 170.75 160.4
M 222 38.75
Q 222 26.6 209.8 26.6
L 155.15 26.6
Q 143 26.6 143 38.75
L 143 184.95 159 184.95 159 168.15
Q 159.95 160.6 165.6 154.9 172.55 148.05 182.3 148.05 192 148.05 198.9 154.9 204.6 160.6 205.65 168.15
L 205.65 184.95 222 184.95 222 38.75
M 178.7 40.75
L 185.8 40.75 185.8 56.1 178.7 56.1 178.7 40.75
M 199.9 82.05
L 199.9 66.75 207.05 66.75 207.05 82.05 199.9 82.05
M 185.8 66.75
L 185.8 82.05 178.7 82.05 178.7 66.75 185.8 66.75
M 164.1 66.75
L 164.1 82.05 157 82.05 157 66.75 164.1 66.75
M 178.7 94.55
L 185.8 94.55 185.8 109.85 178.7 109.85 178.7 94.55
M 199.9 40.75
L 207.05 40.75 207.05 56.1 199.9 56.1 199.9 40.75
M 199.9 94.55
L 207.05 94.55 207.05 109.85 199.9 109.85 199.9 94.55
M 164.1 40.75
L 164.1 56.1 157 56.1 157 40.75 164.1 40.75
M 207.05 121.35
L 207.05 136.65 199.9 136.65 199.9 121.35 207.05 121.35
M 185.8 121.35
L 185.8 136.65 178.7 136.65 178.7 121.35 185.8 121.35
M 164.1 121.35
L 164.1 136.65 157 136.65 157 121.35 164.1 121.35
M 164.1 94.55
L 164.1 109.85 157 109.85 157 94.55 164.1 94.55 Z"/>
</g>
</defs>

<g id="_____1">
<g transform="matrix( 1, 0, 0, 1, 0,0) ">
<use xlink:href="#Layer0_0_FILL"/>
</g>
</g>
</svg>
