
<svg xmlns="http://www.w3.org/2000/svg" version="1.1" xmlns:xlink="http://www.w3.org/1999/xlink" preserveAspectRatio="none" x="0px" y="0px" width="300px" height="300px" viewBox="0 0 300 300">
<defs>
<g id="Layer0_0_FILL">
<path fill="#FFFFFF" stroke="none" d="
M 99.7 268.35
Q 103.45 274.2 112.55 278.95 128 286.95 149.8 286.95 171.6 286.95 187.05 278.95 196.2 274.2 199.9 268.35
L 253.45 268.35 253.45 204.4 275 204.4
Q 276.4 204.4 277.45 203.35 278.5 202.3 278.5 200.9
L 278.5 200.8
Q 278.5 199.4 277.45 198.3 276.4 197.3 275 197.3
L 25.1 197.3
Q 23.65 197.3 22.6 198.3 21.55 199.4 21.55 200.8
L 21.55 200.9
Q 21.55 202.3 22.6 203.35 23.65 204.4 25.1 204.4
L 46.6 204.4 46.6 268.35 99.7 268.35
M 152.3 219.05
Q 150.8 219.05 149.15 219.15 145.45 219.4 143.7 220.2 141.9 220.95 140.75 222.9 139.65 224.65 139.1 227.7
L 138.55 227.65 138.95 218.3 171 218.3 171.4 227.65 170.85 227.7
Q 170.25 224.2 168.9 222.35 167.55 220.55 164.9 219.8 162.75 219.05 157.45 219.05
L 157.45 245.05
Q 157.45 247.6 157.75 248.9 158 250.2 158.75 251 159.4 251.65 160.25 252 161.05 252.35 162.4 252.4
L 162.4 253.05 147.3 253.05 147.3 252.4
Q 148.65 252.35 149.55 252 150.35 251.65 151 251 151.75 250.2 152.05 248.9 152.3 247.7 152.3 245.05
L 152.3 219.05
M 132 224
Q 136.15 229.05 136.15 235.55 136.15 238.8 135.05 241.85 133.95 244.9 131.85 247.4 129.35 250.45 125.85 252.2 122.4 253.9 118.5 253.9 114.8 253.9 111.35 252.2 107.9 250.6 105.45 247.55 103.5 245.15 102.4 242.1 101.4 239.15 101.4 235.9 101.4 231.55 103.1 227.95 104.8 224.25 108.05 221.55 110.45 219.6 113.3 218.5 116.1 217.4 119 217.4 122.6 217.4 126.05 219.1 129.4 220.8 132 224
M 86.55 220.3
Q 85.9 219.6 85.1 219.25 84.25 218.95 82.85 218.85
L 82.85 218.3 98 218.3 98 218.85
Q 96.65 218.95 95.85 219.25 94.95 219.6 94.3 220.3 93.55 221.15 93.35 222.4 93 223.65 93 226.3
L 93 245.05
Q 93 247.6 93.35 248.9 93.55 250.1 94.3 251 94.95 251.65 95.85 252 96.65 252.35 98 252.4
L 98 253.05 82.85 253.05 82.85 252.4
Q 84.25 252.35 85.1 252 85.9 251.65 86.55 251 87.3 250.2 87.6 248.9 87.85 247.7 87.85 245.05
L 87.85 235.65 71.05 235.65 71.05 245.05
Q 71.05 247.6 71.35 248.9 71.6 250.2 72.35 251 72.95 251.65 73.85 252 74.65 252.35 76 252.4
L 76 253.05 60.9 253.05 60.9 252.4
Q 62.25 252.35 63.15 252 63.95 251.65 64.65 251 65.35 250.2 65.65 248.9 65.9 247.7 65.9 245.05
L 65.9 226.3
Q 65.9 223.65 65.65 222.4 65.35 221.15 64.65 220.3 63.95 219.6 63.15 219.25 62.25 218.95 60.9 218.85
L 60.9 218.3 76 218.3 76 218.85
Q 74.65 218.95 73.85 219.25 73.05 219.6 72.35 220.3 71.6 221.15 71.35 222.4 71.05 223.65 71.05 226.3
L 71.05 234.45 87.85 234.45 87.85 226.3
Q 87.85 223.65 87.6 222.4 87.3 221.15 86.55 220.3
M 207.7 222.3
Q 207.4 221 206.6 220.2 205.95 219.5 205.1 219.25 204.3 218.9 203 218.85
L 203 218.3 218.1 218.3 218.1 218.85
Q 216.85 218.95 216 219.25 215.2 219.6 214.55 220.2 213.7 221.05 213.45 222.35 213.2 223.55 213.2 226.3
L 213.2 240.95
Q 213.2 244.35 213.3 246 213.5 247.7 214 248.7 214.8 250.5 216.45 251.4 218.05 252.2 220.75 252.2 223.6 252.2 225.5 251.45 227.45 250.65 228.7 248.95 229.5 247.8 230.05 246.3 230.6 244.9 231.05 242.55
L 231.6 242.6 231.25 253.05 203 253.05 203 252.4
Q 205.4 252.4 206.75 251 207.4 250.2 207.75 248.9 208.05 247.6 208.05 245.05
L 208.05 226.3
Q 208.05 223.55 207.7 222.3
M 192.4 219.45
Q 190.9 219.05 188.4 219.05
L 183 219.05 183 234.35 184.4 234.35
Q 186.55 234.35 187.65 234 188.75 233.75 189.4 232.9 190.1 232.15 190.45 231.2 190.7 230.2 190.9 228.25
L 191.45 228.25 191.35 241.9 190.85 241.9
Q 190.65 239.95 190.2 238.75 189.8 237.5 189.05 236.7 188.35 235.9 187.25 235.5 186.1 235.15 184.35 235.15
L 183 235.15 183 240.95
Q 183 244.45 183.1 246.05 183.3 247.6 183.8 248.7 184.6 250.5 186.25 251.4 187.85 252.2 190.55 252.2 193.4 252.2 195.3 251.45 197.25 250.65 198.5 249.05 199.3 247.95 199.85 246.55 200.4 245.15 200.85 242.85
L 201.4 242.85 201.05 253.05 172.8 253.05 172.8 252.4
Q 174.2 252.35 175.05 252 175.85 251.65 176.55 251 177.2 250.2 177.55 248.9 177.85 247.6 177.85 245.05
L 177.85 226.3
Q 177.85 223.65 177.55 222.4 177.2 221.15 176.55 220.3 175.85 219.6 175.05 219.25 174.2 218.95 172.8 218.85
L 172.8 218.3 198.3 218.3 198.7 226.7 198.15 226.7
Q 197.8 224.6 197.15 223.15 196.4 221.75 195.05 220.65 193.95 219.8 192.4 219.45
M 126.5 222.2
Q 124.95 220.1 123.15 219.15 121.25 218.2 118.75 218.2 116.2 218.2 114.4 219.15 112.55 220.05 111 222.2 109.1 224.7 108.1 228.4 107.1 232.05 107.1 236.3 107.1 243.7 110.8 248.7 112.5 251 114.4 252 116.3 253.05 118.75 253.05 121.25 253.05 123.15 252 124.95 251 126.65 248.7 130.45 243.6 130.45 236.15 130.45 232.05 129.4 228.4 128.35 224.7 126.5 222.2
M 100.5 35.2
Q 99.55 36.25 99.55 37.65
L 99.55 74.8 84.8 74.8
Q 71.25 74.8 71.25 88.35
L 71.25 189.5 134.1 189.5 134.1 88.35
Q 134.1 74.8 120.55 74.8
L 106.35 74.8 106.35 37.65
Q 106.35 36.25 105.3 35.2 104.35 34.25 102.95 34.25 101.55 34.25 100.5 35.2
M 111.1 92.5
L 119 92.5 119 109.55 111.1 109.55 111.1 92.5
M 86.5 92.5
L 94.4 92.5 94.4 109.55 86.5 109.55 86.5 92.5
M 111.1 121.8
L 119 121.8 119 138.85 111.1 138.85 111.1 121.8
M 86.5 121.8
L 94.4 121.8 94.4 138.85 86.5 138.85 86.5 121.8
M 111.1 152.5
L 119 152.5 119 169.55 111.1 169.55 111.1 152.5
M 86.5 152.5
L 94.4 152.5 94.4 169.55 86.5 169.55 86.5 152.5
M 172.55 162.05
Q 168.2 166.45 167.45 172.2
L 167.45 189.4 203.2 189.4 203.2 172.2
Q 202.4 166.45 198 162.05 192.8 156.75 185.3 156.75 177.85 156.75 172.55 162.05
M 229.65 26.6
Q 229.65 13.1 216.1 13.1
L 155.2 13.1
Q 141.7 13.1 141.7 26.6
L 141.7 189.4 159.5 189.4 159.5 170.7
Q 160.55 162.3 166.85 155.95 174.6 148.3 185.4 148.3 196.25 148.3 203.9 155.95 210.25 162.3 211.4 170.7
L 211.4 189.4 229.65 189.4 229.65 26.6
M 205.05 28.85
L 212.95 28.85 212.95 45.9 205.05 45.9 205.05 28.85
M 189.35 28.85
L 189.35 45.9 181.4 45.9 181.4 28.85 189.35 28.85
M 165.15 28.85
L 165.15 45.9 157.25 45.9 157.25 28.85 165.15 28.85
M 189.35 57.75
L 189.35 74.8 181.4 74.8 181.4 57.75 189.35 57.75
M 165.15 57.75
L 165.15 74.8 157.25 74.8 157.25 57.75 165.15 57.75
M 181.4 88.7
L 189.35 88.7 189.35 105.75 181.4 105.75 181.4 88.7
M 205.05 57.75
L 212.95 57.75 212.95 74.8 205.05 74.8 205.05 57.75
M 205.05 88.7
L 212.95 88.7 212.95 105.75 205.05 105.75 205.05 88.7
M 205.05 135.6
L 205.05 118.55 212.95 118.55 212.95 135.6 205.05 135.6
M 189.35 118.55
L 189.35 135.6 181.4 135.6 181.4 118.55 189.35 118.55
M 165.15 118.55
L 165.15 135.6 157.25 135.6 157.25 118.55 165.15 118.55
M 165.15 88.7
L 165.15 105.75 157.25 105.75 157.25 88.7 165.15 88.7 Z"/>
</g>
</defs>

<g id="_____1">
<g transform="matrix( 1, 0, 0, 1, 0,0) ">
<use xlink:href="#Layer0_0_FILL"/>
</g>
</g>
</svg>
