
<svg xmlns="http://www.w3.org/2000/svg" version="1.1" xmlns:xlink="http://www.w3.org/1999/xlink" preserveAspectRatio="none" x="0px" y="0px" width="200px" height="200px" viewBox="0 0 200 200">
<defs>
<g id="Layer0_0_MEMBER_0_MEMBER_0_MEMBER_0_MEMBER_0_FILL">
<path fill="#00B956" stroke="none" d="
M 160.75 15.95
Q 148.75 2.3 130.7 0.1
L 130.7 49.6
Q 130.7 51.2 129.55 52.45 128.3 53.6 126.75 53.6
L 120.9 53.6
Q 120.45 53.6 120.45 54.05
L 120.45 95.5
Q 122.05 95.5 124.9 95.85 144.8 95.85 158.9 81.8 172.95 67.75 172.95 47.8 172.95 29.75 160.75 15.95
M 163.8 68.3
Q 163.8 70.7 162.15 72.35 160.5 74.15 157.9 74.15 155.45 74.15 153.7 72.35 152.05 70.7 152.05 68.3 152.05 65.8 153.8 64.1 155.65 62.5 157.9 62.5 160.5 62.5 162.15 64.25 163.8 66 163.8 68.3
M 147.95 72.35
Q 146.25 74.15 143.65 74.15 141.15 74.15 139.5 72.35 137.8 70.75 137.8 68.3 137.8 65.75 139.6 64.1 141.35 62.5 143.65 62.5 146.2 62.5 147.95 64.25 149.55 66 149.55 68.3 149.55 70.7 147.95 72.35
M 123.85 68.3
Q 123.85 65.8 125.6 64.1 127.45 62.5 129.7 62.5 132.15 62.5 133.9 64.25 135.6 66.05 135.6 68.3 135.8 70.7 134.05 72.45 132.35 74.15 129.7 74.15 127.2 74.15 125.55 72.35 123.85 70.75 123.85 68.3 Z"/>
</g>

<g id="Layer0_0_MEMBER_1_MEMBER_0_MEMBER_0_MEMBER_0_FILL">
<path fill="#00B956" stroke="none" d="
M 124.65 47.2
L 124.9 0.05
Q 105 0.05 90.95 14.1 76.9 28.15 76.9 48.1 76.9 65.45 87.65 78.6 98.25 91.45 114.7 94.9
L 114.7 51.65
Q 114.7 50.2 115.85 49.05 116.9 47.95 118.25 47.65
L 124.2 47.65
Q 124.65 47.65 124.65 47.2
M 111.55 29.5
Q 113.35 27.8 115.55 27.8 118 27.8 119.75 29.55 121.45 31.4 121.45 33.6 121.45 35.85 119.75 37.65 117.95 39.45 115.55 39.45 113.05 39.45 111.4 37.65 109.8 36 109.8 33.6 109.8 31.2 111.55 29.5 Z"/>
</g>

<g id="Layer0_0_MEMBER_2_MEMBER_0_MEMBER_0_MEMBER_0_FILL">
<path fill="#00B956" stroke="none" d="
M 242.9 121.8
L 242.9 132.55 228.45 132.55 228.45 121.8 221.2 121.8 221.2 150.3 228.45 150.3 228.45 138.8 242.9 138.8 242.9 150.3 249.95 150.3 249.95 121.8 242.9 121.8 Z"/>
</g>

<g id="Layer0_0_MEMBER_3_MEMBER_0_MEMBER_0_MEMBER_0_FILL">
<path fill="#00B956" stroke="none" d="
M 124 125.05
Q 123.2 123.25 121.55 122.15 120 121.15 118.2 121.15 116.3 121.15 114.8 122.15 113.15 123.2 112.4 125.05
L 100.85 150.5 108.4 150.5 110.95 144.45 125.75 144.45 128.35 150.5 135.9 150.5 124 125.05
M 113 138.7
L 117.3 128.2
Q 117.55 127.9 117.8 127.9 118.35 127.9 118.35 128.2
L 122.7 138.7 113 138.7 Z"/>
</g>

<g id="Layer0_0_MEMBER_4_MEMBER_0_MEMBER_0_MEMBER_0_FILL">
<path fill="#00B956" stroke="none" d="
M 45.45 124.05
Q 45.4 120.55 43.4 118.5 41.6 116.7 39 116.7 36.45 116.7 34.7 118.05 33.05 119.35 31.85 122.1
L 22.65 143.55 13.4 121.95
Q 11.15 116.65 6.3 116.65 3.7 116.65 1.95 118.3 0 120.25 0 123.65
L 0 150.25 7.05 150.25 7.05 124.6 16.45 145.95
Q 17.35 148.2 18.95 149.5 20.65 150.8 22.7 150.8 27.1 150.8 28.95 145.95
L 38.35 124.6 38.35 150.55 45.45 150.55 45.45 124.05 Z"/>
</g>

<g id="Layer0_0_MEMBER_5_MEMBER_0_MEMBER_0_MEMBER_0_FILL">
<path fill="#00B956" stroke="none" d="
M 54.45 121.55
Q 52.55 121.55 51.35 122.8 50.2 124.1 50.2 125.85
L 50.2 145.75
Q 50.2 147.45 51.4 148.7 52.7 150 54.45 150
L 75.6 150 75.6 144 57.9 144 57.9 144.35
Q 57.65 144.35 57.45 144.15 57.2 143.9 57.2 143.55
L 57.2 138.45 74.95 138.45 74.95 132.65 57.2 132.65 57.2 128.3
Q 57.2 128.05 57.4 127.85 57.6 127.6 57.9 127.6
L 75.6 127.6 75.6 121.55 54.45 121.55 Z"/>
</g>

<g id="Layer0_0_MEMBER_6_MEMBER_0_MEMBER_0_MEMBER_0_FILL">
<path fill="#00B956" stroke="none" d="
M 80.55 126.05
L 80.55 150.25 87.55 150.3 87.55 128.55
Q 87.55 128.25 87.75 128.05 88 127.8 88.2 127.8
L 105.95 127.8 105.95 121.8 84.8 121.8
Q 82.95 121.8 81.7 123.1 80.55 124.35 80.55 126.05 Z"/>
</g>

<g id="Layer0_0_MEMBER_7_MEMBER_0_MEMBER_0_MEMBER_0_FILL">
<path fill="#00B956" stroke="none" d="
M 216.5 136.15
Q 216.5 128.6 213 125.15 209.35 121.55 201.35 121.55
L 198.85 121.55
Q 190.95 121.55 187.25 125.15 183.7 128.7 183.7 136.15 183.7 143.55 187.25 147.15 190.9 150.8 198.85 150.8
L 201.15 150.8
Q 209.35 150.6 212.95 147.05 216.5 143.6 216.5 136.15
M 209.4 136.15
Q 209.4 140.6 207.55 142.6 205.7 144.7 201.15 144.7
L 198.85 144.7
Q 194.45 144.7 192.55 142.65 190.6 140.65 190.6 136.15 190.6 131.7 192.4 129.75 194.25 127.6 198.85 127.6
L 201.15 127.6
Q 205.6 127.6 207.55 129.75 209.4 131.75 209.4 136.15 Z"/>
</g>

<g id="Layer0_0_MEMBER_8_MEMBER_0_MEMBER_0_MEMBER_0_FILL">
<path fill="#00B956" stroke="none" d="
M 175.25 121.2
Q 171.55 117.35 163.95 117.35
L 149.8 117.35
Q 142.15 117.35 138.45 121.2 135 124.8 135 131.95
L 135.35 136
Q 136.25 141.2 139.55 143.75 143.15 146.55 150.25 146.55
L 153.4 146.55 153.4 150.25 160.5 150.25 160.5 146.55 163.55 146.55
Q 170.75 146.55 174.35 143.75 177.6 141.25 178.45 136 178.8 134.3 178.8 131.95 178.65 124.75 175.25 121.2
M 169.9 125.5
Q 171.8 127.7 171.8 132 171.55 135.35 171.35 136.15 170.45 138.6 168.95 139.65 167.1 140.9 163.75 140.9
L 160.6 140.9 160.6 123.5 164.95 123.5
Q 168.05 123.5 169.9 125.5
M 148.95 123.25
L 153.3 123.25 153.3 140.6 153.2 140.6 153.2 140.65 150.05 140.65
Q 146.65 140.65 144.8 139.35 143.3 138.3 142.4 135.9 142.1 134.85 142.1 131.85 142.1 127.6 144 125.3 145.8 123.25 148.95 123.25 Z"/>
</g>
</defs>

<g id="megafon_logo_svg">
<g transform="matrix( 0.739593505859375, 0, 0, 0.739593505859375, 7.6,44.2) ">
<use xlink:href="#Layer0_0_MEMBER_0_MEMBER_0_MEMBER_0_MEMBER_0_FILL"/>
</g>

<g transform="matrix( 0.739593505859375, 0, 0, 0.739593505859375, 7.6,44.2) ">
<use xlink:href="#Layer0_0_MEMBER_1_MEMBER_0_MEMBER_0_MEMBER_0_FILL"/>
</g>

<g transform="matrix( 0.739593505859375, 0, 0, 0.739593505859375, 7.6,44.2) ">
<use xlink:href="#Layer0_0_MEMBER_2_MEMBER_0_MEMBER_0_MEMBER_0_FILL"/>
</g>

<g transform="matrix( 0.739593505859375, 0, 0, 0.739593505859375, 7.6,44.2) ">
<use xlink:href="#Layer0_0_MEMBER_3_MEMBER_0_MEMBER_0_MEMBER_0_FILL"/>
</g>

<g transform="matrix( 0.739593505859375, 0, 0, 0.739593505859375, 7.6,44.2) ">
<use xlink:href="#Layer0_0_MEMBER_4_MEMBER_0_MEMBER_0_MEMBER_0_FILL"/>
</g>

<g transform="matrix( 0.739593505859375, 0, 0, 0.739593505859375, 7.6,44.2) ">
<use xlink:href="#Layer0_0_MEMBER_5_MEMBER_0_MEMBER_0_MEMBER_0_FILL"/>
</g>

<g transform="matrix( 0.739593505859375, 0, 0, 0.739593505859375, 7.6,44.2) ">
<use xlink:href="#Layer0_0_MEMBER_6_MEMBER_0_MEMBER_0_MEMBER_0_FILL"/>
</g>

<g transform="matrix( 0.739593505859375, 0, 0, 0.739593505859375, 7.6,44.2) ">
<use xlink:href="#Layer0_0_MEMBER_7_MEMBER_0_MEMBER_0_MEMBER_0_FILL"/>
</g>

<g transform="matrix( 0.739593505859375, 0, 0, 0.739593505859375, 7.6,44.2) ">
<use xlink:href="#Layer0_0_MEMBER_8_MEMBER_0_MEMBER_0_MEMBER_0_FILL"/>
</g>
</g>
</svg>
