
<svg xmlns="http://www.w3.org/2000/svg" version="1.1" xmlns:xlink="http://www.w3.org/1999/xlink" preserveAspectRatio="none" x="0px" y="0px" width="200px" height="200px" viewBox="0 0 200 200">
<defs>
<g id="Layer0_0_MEMBER_0_FILL">
<path fill="#FFFFFF" fill-opacity="0" stroke="none" d="
M 515.3 258.45
L 515.3 0.1 0.3 0.1 0.3 258.45 515.3 258.45 Z"/>
</g>

<g id="Layer0_0_MEMBER_1_FILL">
<path fill="#FF0000" stroke="none" d="
M 8.25 8.4
L 8.25 249.85 249.7 249.85 249.7 8.4 8.25 8.4 Z"/>
</g>

<g id="Layer0_0_MEMBER_2_FILL">
<path fill="#FFFFFF" stroke="none" d="
M 199.95 147.7
Q 199.95 128.25 193.7 107.4 187.7 87.45 177.35 70.5 166.9 53.45 154.55 43.6 141.45 33.2 128.95 33.2 116.45 33.2 103.4 43.6 91.05 53.45 80.6 70.5 70.25 87.45 64.25 107.4 58 128.25 58 147.7 58 180.65 76.05 202 95.5 225 128.95 225 162.4 225 181.85 202 199.95 180.6 199.95 147.7 Z"/>
</g>

<g id="Layer0_0_MEMBER_3_FILL">
<path fill="#FF0000" stroke="none" d="
M 508.25 249.95
L 508.25 8.55 266.85 8.55 266.85 249.95 508.25 249.95 Z"/>
</g>

<g id="Layer0_0_MEMBER_4_FILL">
<path fill="#FFFFFF" stroke="none" d="
M 335 121.4
L 335.2 121.4 335.2 158.6 352.1 158.6 352.1 100.6 326.7 100.6 318.35 134.7 318.25 134.7 309.9 100.6 284.5 100.6 284.5 158.6 301.4 158.6 301.4 121.4 301.55 121.4 311.65 158.6 324.95 158.6 335 121.4 Z"/>
</g>

<g id="Layer0_0_MEMBER_5_FILL">
<path fill="#FFFFFF" stroke="none" d="
M 361.8 100.6
L 361.8 115.45 378.05 115.45 378.05 158.6 395.9 158.6 395.9 115.45 412.15 115.45 412.15 100.6 361.8 100.6 Z"/>
</g>

<g id="Layer0_0_MEMBER_6_FILL">
<path fill="#FFFFFF" stroke="none" d="
M 455.3 122.2
L 472.65 122.2
Q 471.5 111.15 464.95 105.3 458.25 99.3 446.45 99.25 433.05 99.25 425.05 107.6 417.05 115.85 417.05 129.6 417.05 142.9 424.7 151.2 432.75 159.95 446.45 159.95 458.5 159.95 466.05 152.25 472.9 145.3 472.9 135.85
L 455.35 135.85
Q 454.5 140.4 452.5 142.7 450.15 145.5 445.95 145.5 440.15 145.5 437.3 140.5 434.9 136.3 434.9 129.6 434.9 122.9 437.3 118.75 440.15 113.7 445.95 113.7 450.7 113.7 453.25 117.15 454.8 119.3 455.3 122.2 Z"/>
</g>
</defs>

<g id="mts_logo_svg">
<g transform="matrix( 0.383270263671875, 0, 0, 0.383270263671875, 1.2,50.45) ">
<use xlink:href="#Layer0_0_MEMBER_0_FILL"/>
</g>

<g transform="matrix( 0.383270263671875, 0, 0, 0.383270263671875, 1.2,50.45) ">
<use xlink:href="#Layer0_0_MEMBER_1_FILL"/>
</g>

<g transform="matrix( 0.383270263671875, 0, 0, 0.383270263671875, 1.2,50.45) ">
<use xlink:href="#Layer0_0_MEMBER_2_FILL"/>
</g>

<g transform="matrix( 0.383270263671875, 0, 0, 0.383270263671875, 1.2,50.45) ">
<use xlink:href="#Layer0_0_MEMBER_3_FILL"/>
</g>

<g transform="matrix( 0.383270263671875, 0, 0, 0.383270263671875, 1.2,50.45) ">
<use xlink:href="#Layer0_0_MEMBER_4_FILL"/>
</g>

<g transform="matrix( 0.383270263671875, 0, 0, 0.383270263671875, 1.2,50.45) ">
<use xlink:href="#Layer0_0_MEMBER_5_FILL"/>
</g>

<g transform="matrix( 0.383270263671875, 0, 0, 0.383270263671875, 1.2,50.45) ">
<use xlink:href="#Layer0_0_MEMBER_6_FILL"/>
</g>
</g>
</svg>
