
<svg xmlns="http://www.w3.org/2000/svg" version="1.1" xmlns:xlink="http://www.w3.org/1999/xlink" preserveAspectRatio="none" x="0px" y="0px" width="200px" height="200px" viewBox="0 0 200 200">
<defs>
<g id="Layer0_0_MEMBER_0_MEMBER_0_FILL">
<path fill="#FF4F12" stroke="none" d="
M 440.3 418.25
Q 424.85 433.6 416.8 441.8
L 403.25 455.3
Q 400.25 458.45 398.6 462.8 396.9 467.15 396.9 471.75 396.9 478.9 400.95 484.65 404.85 490.2 411.35 492.9
L 413.2 493.55
Q 418.8 495.25 424.15 495.25
L 617.6 495.25 490.75 368.05 440.3 418.25 Z"/>
</g>

<g id="Layer0_0_MEMBER_0_MEMBER_1_FILL">
<path fill="#7700FF" stroke="none" d="
M 386.95 160.75
Q 386.85 168.55 387.1 187.1
L 387.1 458.05
Q 387.1 469.9 393.9 479.5 400.55 488.9 411.35 492.9 404.85 490.2 400.95 484.65 396.9 478.9 396.9 471.75 396.9 467.15 398.6 462.8 400.25 458.45 403.25 455.3
L 416.8 441.8
Q 424.85 433.6 440.3 418.25
L 514.05 344.85
Q 589.8 269.6 685.4 174.3
L 511.2 0 412.55 98.75
Q 392.9 118.4 388.8 139.1 387.1 147.7 386.95 160.75 Z"/>
</g>

<g id="Layer0_0_MEMBER_0_MEMBER_2_FILL">
<path fill="#101828" stroke="none" d="
M 776.25 637.75
L 751.7 637.75 751.7 734.35 776.25 734.35 776.25 694.4 811.5 734.35 841.1 734.35 795.5 682.55 839.9 637.75 810.9 637.75 776.25 672.8 776.25 637.75 Z"/>
</g>

<g id="Layer0_0_MEMBER_0_MEMBER_3_FILL">
<path fill="#101828" stroke="none" d="
M 112.95 642.4
Q 112.95 621.3 99 609.5 85.4 598 61.9 598
L 0 598 0 734.35 25.7 734.35 25.7 686.8 61.9 686.8
Q 85.4 686.8 99 675.35 112.95 663.55 112.95 642.4
M 61.15 621
Q 74.2 621 80.9 626.9 87.25 632.4 87.25 642.4 87.25 652.4 80.9 657.95 74.15 663.85 61.15 663.85
L 25.7 663.85 25.7 621 61.15 621 Z"/>
</g>

<g id="Layer0_0_MEMBER_0_MEMBER_4_FILL">
<path fill="#101828" stroke="none" d="
M 134.65 647.8
Q 118.2 662 118.2 686.05 118.2 710.1 134.65 724.25 149.5 737.05 171 737.05 192.45 737.05 207.3 724.25 223.75 710.1 223.75 686.05 223.75 662 207.3 647.8 192.45 635 171 635 149.5 635 134.65 647.8
M 143.1 686.05
Q 143.1 673.3 151.65 665.35 159.6 658 171 658 182.4 658 190.35 665.35 198.85 673.3 198.85 686.05 198.85 698.8 190.35 706.7 182.4 714.1 171 714.1 159.6 714.1 151.65 706.7 143.1 698.8 143.1 686.05 Z"/>
</g>

<g id="Layer0_0_MEMBER_0_MEMBER_5_FILL">
<path fill="#101828" stroke="none" d="
M 313.5 641.45
Q 302.15 635 286.6 635 265.45 635 250.9 649 235.8 663.5 235.8 686.05 235.8 708.75 250.5 723.1 264.8 737.05 286.6 737.05 301.7 737.05 312.8 730.35 323.35 723.95 330.85 711.15
L 310.55 700.05
Q 305.6 707 300.85 710.15 294.8 714.1 286.4 714.1 275.1 714.1 268 706.6 260.7 698.85 260.7 686.05 260.7 673.45 268.15 665.6 275.35 658 286.4 658 300.1 658 308.8 671.25
L 329.85 659.15
Q 324.5 647.75 313.5 641.45 Z"/>
</g>

<g id="Layer0_0_MEMBER_0_MEMBER_6_FILL">
<path fill="#101828" stroke="none" d="
M 572.85 659.75
L 600.5 659.75 600.5 734.15 625.05 734.15 625.05 637.75 551.8 637.75 547.7 692.45
Q 546.9 703 544.6 707.1 542.65 710.6 538.55 710.6 536.2 710.6 534.45 710.35 533.3 710.15 531.1 709.6
L 531.25 734.6 533.5 735.05
Q 536.4 735.5 539.95 735.5 555.2 735.5 562.3 725.2 569 715.55 570.5 693.45
L 572.85 659.75 Z"/>
</g>

<g id="Layer0_0_MEMBER_0_MEMBER_7_FILL">
<path fill="#101828" stroke="none" d="
M 442.2 649.05
Q 427.3 663.5 427.3 686.05 427.3 708.45 442.05 723 456.25 737.05 476.95 737.05 492.65 737.05 503.45 731 513.95 725.1 521.35 712.55
L 501.85 702.8
Q 496.5 709.6 492.25 712.3 486.25 716.05 477.35 716.05 466.45 716.05 459.25 709.55 452 702.95 450.85 691.9
L 525.25 691.9 525.25 683.3
Q 525.25 662.1 512.05 648.55 498.85 635 478.1 635 456.65 635 442.2 649.05
M 460.8 659.35
Q 468 653.7 477.35 653.7 487.5 653.7 494.1 658.9 500.7 664.05 502.45 673.2
L 451.25 673.2
Q 454 664.7 460.8 659.35 Z"/>
</g>

<g id="Layer0_0_MEMBER_0_MEMBER_8_FILL">
<path fill="#101828" stroke="none" d="
M 736.75 691.9
L 736.75 683.3
Q 736.75 662.1 723.55 648.55 710.35 635 689.6 635 668.15 635 653.7 649.05 638.8 663.55 638.8 686.05 638.8 708.45 653.55 723 667.8 737.05 688.45 737.05 704.2 737.05 714.95 731 725.45 725.1 732.85 712.55
L 713.4 702.8
Q 708 709.6 703.75 712.3 697.75 716.05 688.85 716.05 678 716.05 670.8 709.55 663.5 702.95 662.35 691.9
L 736.75 691.9
M 662.75 673.2
Q 665.5 664.7 672.3 659.35 679.5 653.7 688.85 653.7 699 653.7 705.65 658.9 712.2 664.05 713.95 673.2
L 662.75 673.2 Z"/>
</g>

<g id="Layer0_0_MEMBER_0_MEMBER_9_FILL">
<path fill="#101828" stroke="none" d="
M 420.65 659.15
L 420.65 637.75 338.45 637.75 338.45 659.15 367.3 659.15 367.3 734.35 391.85 734.35 391.85 659.15 420.65 659.15 Z"/>
</g>

<g id="Layer0_0_MEMBER_0_MEMBER_10_FILL">
<path fill="#101828" stroke="none" d="
M 942.6 686.05
Q 942.6 662 926.15 647.8 911.3 635 889.8 635 868.35 635 853.5 647.8 837.05 662 837.05 686.05 837.05 710.1 853.5 724.25 868.3 737.05 889.8 737.05 911.3 737.05 926.15 724.25 942.6 710.1 942.6 686.05
M 909.15 665.35
Q 917.65 673.3 917.65 686.05 917.65 698.8 909.15 706.7 901.2 714.1 889.8 714.1 878.4 714.1 870.5 706.7 861.95 698.8 861.95 686.05 861.95 673.3 870.5 665.35 878.4 658 889.8 658 901.2 658 909.15 665.35 Z"/>
</g>

<g id="Layer0_0_MEMBER_0_MEMBER_11_FILL">
<path fill="#101828" stroke="none" d="
M 954.9 637.7
L 954.9 734.15 978.25 734.15 978.25 673.1 1004.1 734.15 1023.15 734.15 1049 673.1 1049 734.15 1072.35 734.15 1072.35 637.7 1040.25 637.7 1013.6 705.4 986.95 637.7 954.9 637.7 Z"/>
</g>
</defs>

<g id="rostelecom_logo_svg">
<g transform="matrix( 0.18194580078125, 0, 0, 0.1819610595703125, 2.45,32.95) ">
<use xlink:href="#Layer0_0_MEMBER_0_MEMBER_0_FILL"/>
</g>

<g transform="matrix( 0.18194580078125, 0, 0, 0.1819610595703125, 2.45,32.95) ">
<use xlink:href="#Layer0_0_MEMBER_0_MEMBER_1_FILL"/>
</g>

<g transform="matrix( 0.18194580078125, 0, 0, 0.1819610595703125, 2.45,32.95) ">
<use xlink:href="#Layer0_0_MEMBER_0_MEMBER_2_FILL"/>
</g>

<g transform="matrix( 0.18194580078125, 0, 0, 0.1819610595703125, 2.45,32.95) ">
<use xlink:href="#Layer0_0_MEMBER_0_MEMBER_3_FILL"/>
</g>

<g transform="matrix( 0.18194580078125, 0, 0, 0.1819610595703125, 2.45,32.95) ">
<use xlink:href="#Layer0_0_MEMBER_0_MEMBER_4_FILL"/>
</g>

<g transform="matrix( 0.18194580078125, 0, 0, 0.1819610595703125, 2.45,32.95) ">
<use xlink:href="#Layer0_0_MEMBER_0_MEMBER_5_FILL"/>
</g>

<g transform="matrix( 0.18194580078125, 0, 0, 0.1819610595703125, 2.45,32.95) ">
<use xlink:href="#Layer0_0_MEMBER_0_MEMBER_6_FILL"/>
</g>

<g transform="matrix( 0.18194580078125, 0, 0, 0.1819610595703125, 2.45,32.95) ">
<use xlink:href="#Layer0_0_MEMBER_0_MEMBER_7_FILL"/>
</g>

<g transform="matrix( 0.18194580078125, 0, 0, 0.1819610595703125, 2.45,32.95) ">
<use xlink:href="#Layer0_0_MEMBER_0_MEMBER_8_FILL"/>
</g>

<g transform="matrix( 0.18194580078125, 0, 0, 0.1819610595703125, 2.45,32.95) ">
<use xlink:href="#Layer0_0_MEMBER_0_MEMBER_9_FILL"/>
</g>

<g transform="matrix( 0.18194580078125, 0, 0, 0.1819610595703125, 2.45,32.95) ">
<use xlink:href="#Layer0_0_MEMBER_0_MEMBER_10_FILL"/>
</g>

<g transform="matrix( 0.18194580078125, 0, 0, 0.1819610595703125, 2.45,32.95) ">
<use xlink:href="#Layer0_0_MEMBER_0_MEMBER_11_FILL"/>
</g>
</g>
</svg>
