
<svg xmlns="http://www.w3.org/2000/svg" version="1.1" xmlns:xlink="http://www.w3.org/1999/xlink" preserveAspectRatio="none" x="0px" y="0px" width="200px" height="200px" viewBox="0 0 200 200">
<defs>
<g id="Layer0_0_FILL">
<path fill="#141414" stroke="none" d="
M 350 135.6
L 350 106.3 262.8 108.95 262.8 135.6 350 135.6
M 82 40.55
L 62.45 43.3 62.45 135.6 82 135.6 82 40.55
M 113.85 113.45
L 85.65 114.3 85.65 135.6 113.85 135.6 113.85 113.45
M 39.7 69.4
L 21.15 71.3 21.15 135.6 39.7 135.6 39.7 69.4
M 5 51.35
L 5 70.15 55.6 64.55 55.6 44.25 5 51.35
M 143.55 31.9
L 121.3 35 121.3 135.6 143.55 135.6 143.55 31.9
M 104.15 75.5
L 85.65 77.1 85.65 98.7 104.15 97.7 104.15 75.5
M 113.85 36.05
L 85.65 40.05 85.65 61.25 113.85 58.15 113.85 36.05
M 180.05 135.6
L 180.05 111.45 147.75 112.4 147.75 135.6 180.05 135.6
M 217.2 110.3
L 217.2 135.6 254.55 135.6 254.55 109.2 217.2 110.3
M 212.45 22.2
L 186.8 25.8 186.8 135.6 212.45 135.6 212.45 22.2
M 241.65 63.7
L 217.2 65.8 217.2 91.5 241.65 90.15 241.65 63.7
M 254.55 42.65
L 254.55 16.25 217.2 21.5 217.2 46.75 254.55 42.65
M 300.25 35.25
L 300.25 6.75
Q 281.25 10.75 272.05 24.55 262.85 38.35 263.95 61.15
L 290.95 58.75
Q 290.1 47.2 293.15 41.4 295.3 37.35 300.25 35.25
M 346.45 27.35
Q 343.75 20.25 338.2 15 332.15 9.3 323.55 7 315.05 4.7 305.25 6.1
L 305.25 34.1
Q 309.25 33.9 312.25 35.35 315.3 36.8 316.7 39.7 318.9 44.3 316.85 50.85 314.85 57.25 309.3 63.8 302.25 72.1 284.5 89.05
L 268.1 104.3 311.1 102.85
Q 330.7 83.7 339 70.2 347.15 56.85 348.45 42.2 349.15 34.5 346.45 27.35 Z"/>
</g>
</defs>

<g id="tele2_logo_svg">
<g transform="matrix( 0.5634307861328125, 0, 0, 0.5634307861328125, 0,60.25) ">
<use xlink:href="#Layer0_0_FILL"/>
</g>
</g>
</svg>
