
<svg xmlns="http://www.w3.org/2000/svg" version="1.1" xmlns:xlink="http://www.w3.org/1999/xlink" preserveAspectRatio="none" x="0px" y="0px" width="300px" height="300px" viewBox="0 0 300 300">
<defs>
<g id="tours_0_Layer0_0_FILL">
<path fill="#333333" stroke="none" d="
M 171.25 8.35
Q 172.85 2.85 168.3 1.15 163.85 -0.35 161.4 2.95
L 152.05 21.3 141.65 3.45
Q 137.5 -1.7 133.6 0.8 129.75 3.25 132.3 9
L 146.1 33.05 102.45 118.45 104.65 163.85 233 163.85 233 153.35 218.45 153.35 159.45 32.1 171.25 8.35
M 150.15 68
L 154.3 68
Q 156.1 115.8 196.9 152.5
L 150.15 152.5 150.15 68
M 61.7 119.4
L 45.1 103.5 28.3 164.15 39.25 164.15 61.7 119.4
M 49.7 53.75
L 49.7 96.4 82.9 129.9 90.95 163.85 101.05 163.85 98.9 121.2 74.95 89.2 74.95 53.75
Q 71.25 43.65 61.9 43.75 52.45 43.75 49.7 53.75
M 9.8 95.95
Q 19.15 100.65 32.1 95.95 37.7 93.45 40.9 87.25
L 40.9 41
Q 39.8 31.45 27.95 34.75
L 0.55 53.45
Q -1.1 57.7 2.4 60
L 5.65 62.75
Q 5.75 66.05 2.15 66.35 0.9 76.25 2.15 86.2 4.6 92.45 9.8 95.95
M 83.55 76.15
L 101.65 83.25
Q 105.3 84.85 108.35 80.8 111.45 76.65 107.4 72.55
L 83.2 50.7 83.55 76.15
M 89.15 13.45
Q 90.4 10.6 85.95 10.45
L 76.65 10.45
Q 75.65 8.85 74.2 7.4 69.5 2.75 62.85 2.75 56.15 2.75 51.4 7.4 46.7 12.05 46.7 18.55 46.7 25.1 51.4 29.8 56.15 34.35 62.85 34.35 69.5 34.35 74.2 29.8 78 26.05 78.75 21.1 84.9 19.25 89.15 13.45 Z"/>
</g>
</defs>

<g id="_____1">
<g transform="matrix( 1.23095703125, 0, 0, 1.23095703125, 6.95,49.2) ">
<g transform="matrix( 1, 0, 0, 1, 0,0) ">
<use xlink:href="#tours_0_Layer0_0_FILL"/>
</g>
</g>
</g>
</svg>
