
<svg xmlns="http://www.w3.org/2000/svg" version="1.1" xmlns:xlink="http://www.w3.org/1999/xlink" preserveAspectRatio="none" x="0px" y="0px" width="300px" height="300px" viewBox="0 0 300 300">
<defs>
<g id="Layer0_0_FILL">
<path fill="#000000" stroke="none" d="
M 68.8 175.25
Q 59.45 180.45 57.65 190.2
L 59.95 246.75
Q 60.15 255.1 65.55 254.75
L 80.25 254.75 77.95 198.05
Q 70.5 198 62.95 192.5 61.5 181.95 68.8 175.25
M 118.8 89.35
Q 116.9 87.45 114.25 87.45 111.6 87.45 109.65 89.35 107.75 91.3 107.75 93.95 107.75 96.6 109.65 98.5 110.85 99.7 112.4 100.2
L 108.6 113.75 95.65 87.45 71.95 97.65 53.2 148.05
Q 76.05 176.5 83.55 180.55
L 88.1 280.75 106.75 280.75 114.25 266.65 121 280.4 139.85 280.4 143.9 179.5
Q 155.1 175.6 174.65 148.65
L 155.75 96.85 132.3 87.65 119.45 112.9 116.4 100.15
Q 117.7 99.65 118.8 98.5 120.75 96.6 120.75 93.95 120.75 91.3 118.8 89.35
M 75.35 166.85
L 75.35 141.25
Q 75.35 135.05 81.55 135.05
L 146.6 135.05
Q 152.8 135.05 152.8 141.25
L 152.8 166.85
Q 152.8 173.05 146.6 173.05
L 81.55 173.05
Q 75.35 173.05 75.35 166.85
M 109.35 144.55
Q 107.55 145.2 105.95 146.45 103.85 148 102.75 150.25 101.7 152.5 101.7 155.1 101.7 157.1 102.35 158.85 103 160.65 104.3 162.1 105.9 163.9 108.1 164.95 110.3 165.95 112.8 165.95 115.25 165.95 117.5 164.95 119.8 163.8 121.5 162.05 122.8 160.5 123.55 158.6 124.2 156.85 124.2 154.85 124.2 150.9 121.5 147.85 119.8 145.95 117.6 144.95 115.4 143.9 113.05 143.9 111.15 143.9 109.35 144.55
M 107.85 146.75
Q 108.85 145.5 110.1 144.95 111.25 144.4 112.9 144.4 114.55 144.4 115.75 144.95 116.95 145.5 117.95 146.75 119.2 148.35 119.8 150.5 120.5 152.75 120.5 155.2 120.5 159.75 118.1 162.75 116.95 164.2 115.75 164.75 114.55 165.35 112.9 165.35 111.35 165.35 110.1 164.75 108.85 164.15 107.8 162.75 105.35 159.75 105.35 155.2 105.35 152.75 105.95 150.5 106.7 148.35 107.85 146.75
M 126.2 144.4
L 126.2 144.75
Q 127.05 144.75 127.6 145 128.15 145.25 128.55 145.65 129.1 146.1 129.2 146.95 129.4 147.65 129.4 149.3
L 129.4 158.55
Q 129.4 160.35 129.45 161 129.7 162.95 131.1 164.05 133.2 165.95 137.5 165.95 141.65 165.95 143.9 163.95 144.9 163.1 145.2 162.1 145.5 161.05 145.5 158.95
L 145.5 149.3
Q 145.5 147.65 145.7 146.95 145.95 146.1 146.35 145.65 146.8 145.25 147.35 145 147.9 144.75 148.8 144.75
L 148.8 144.4 141.65 144.4 141.65 144.75
Q 142.55 144.75 143.1 145 143.65 145.25 144.15 145.65 144.55 146.1 144.75 146.95 144.9 147.65 144.9 149.3
L 144.9 157.8
Q 144.9 160.15 144.8 160.85 144.75 161.8 144.5 162.4 144.2 163 143.6 163.6 142.6 164.45 141.25 164.95 139.7 165.35 138.15 165.35 136.45 165.35 135.4 164.8 134.3 164.25 133.55 163.1 133.1 162.35 132.95 161.35 132.8 160.4 132.8 158.3
L 132.8 149.6
Q 132.8 147.65 132.95 147 133.1 146.2 133.55 145.65 134 145.25 134.55 145 135.15 144.75 136.05 144.75
L 136.05 144.4 126.2 144.4
M 78.95 144.4
L 78.95 144.75
Q 79.65 144.75 80 144.9 80.45 145 80.8 145.25 81.5 145.65 82.3 146.8
L 87 153.9
Q 87.85 155.2 88.2 156.1 88.45 156.9 88.45 157.55
L 88.45 160.6
Q 88.45 162.15 88.3 162.9 88.1 163.65 87.7 164.15 87.2 164.55 86.65 164.75 86.1 165 85.2 165.05
L 85.2 165.35 95.05 165.35 95.05 165.05
Q 93.5 165.05 92.65 164.15 92.15 163.65 91.95 162.95 91.85 162.2 91.85 160.6
L 91.85 156.85
Q 91.85 155.7 91.95 155.35 92.15 154.85 92.75 153.9
L 96.25 148.55
Q 97.45 146.6 98.6 145.65 98.95 145.25 99.45 145 99.8 144.9 100.6 144.75
L 100.6 144.4 93.55 144.4 93.55 144.75
Q 94.75 144.75 95.35 145.3 96 145.85 96 146.8 96 147.65 95.4 148.55
L 91.4 154.8 87.25 148.25
Q 86.9 147.6 86.7 147.1 86.45 146.7 86.45 146.35 86.45 145.45 87.3 145 87.7 144.9 89 144.75
L 89 144.4 78.95 144.4
M 137.9 47.95
L 135.85 47.15
Q 136.5 37.55 134.55 31.1 131.5 18.5 113.85 18.5 95.5 18.5 92.45 31.1 90.45 37.55 91.15 47.15
L 89.1 47.95
Q 88.9 54.9 90.45 60.4
L 93.65 62.15 93.65 70.4 107.45 81.25 119.55 81.25 133.35 70.4 133.35 62.15 136.5 60.4
Q 138.05 54.9 137.9 47.95
M 242.3 157.4
L 241.45 156.25
Q 236 153.9 227.9 154.1 228.25 159.9 231.7 163.95
L 243.35 163.95
Q 243.35 160.65 242.3 157.4
M 213.2 138
Q 209.95 133.1 203.5 128.9 190.25 126.7 174.15 127.2
L 174.9 129.55
Q 190.15 129.4 202.2 131.55 216.75 143.75 219.9 156.6 220.85 162.1 215 162.05
L 168.65 166.25 158.7 178.5 151.85 181.65 148.7 238 203.95 238 203.95 243.65 219.3 243.65
Q 220.6 254.8 223.85 254.5
L 238.95 254.5
Q 244.6 254.65 245.2 248.25 246.95 236.25 246.2 225
L 247.75 223.75 247.75 187.05
Q 244.3 178.95 238.35 175.6 234.2 167.85 227 162.95 221.75 149.1 213.2 138
M 230.1 176.95
Q 234.95 174.65 237.4 176.95 241.4 180.1 243.3 186.25 244.05 190.75 240.8 194.15 230.05 202.9 203.35 201.45 200.85 200.45 201.7 197.75 205.15 190.8 210.25 186.9 221 184.6 230.1 176.95 Z"/>
</g>
</defs>

<g id="_____1">
<g transform="matrix( 1, 0, 0, 1, 0,0) ">
<use xlink:href="#Layer0_0_FILL"/>
</g>
</g>
</svg>
