
<svg xmlns="http://www.w3.org/2000/svg" version="1.1" xmlns:xlink="http://www.w3.org/1999/xlink" preserveAspectRatio="none" x="0px" y="0px" width="300px" height="300px" viewBox="0 0 300 300">
<defs>
<g id="Layer0_0_FILL">
<path fill="#FFFFFF" stroke="none" d="
M 84.2 170.5
Q 76.65 174.7 75.2 182.55
L 77.05 228.25
Q 77.2 235 81.55 234.7
L 93.45 234.7 91.6 188.9
Q 85.55 188.85 79.45 184.4 78.3 175.9 84.2 170.5
M 122.65 109.8
Q 123.7 109.4 124.6 108.5 126.15 106.95 126.15 104.8 126.15 102.65 124.6 101.1 123.05 99.55 120.9 99.55 118.75 99.55 117.2 101.1 115.65 102.65 115.65 104.8 115.65 106.95 117.2 108.5 118.15 109.45 119.4 109.85
L 116.35 120.8 105.9 99.55 86.75 107.8 71.6 148.5
Q 90.05 171.5 96.1 174.75
L 99.8 255.7 114.85 255.7 120.9 244.3 126.35 255.4 141.6 255.4 144.85 173.9
Q 153.9 170.75 169.7 149
L 154.45 107.15 135.5 99.7 125.1 120.1 122.65 109.8
M 147.05 138
Q 152.05 138 152.05 143
L 152.05 163.7
Q 152.05 168.7 147.05 168.7
L 94.5 168.7
Q 89.5 168.7 89.5 163.7
L 89.5 143
Q 89.5 138 94.5 138
L 147.05 138
M 92.4 145.55
L 92.4 145.85
Q 92.95 145.85 93.25 145.95 93.6 146.05 93.9 146.25 94.45 146.55 95.1 147.5
L 98.9 153.25
Q 99.6 154.3 99.85 155 100.05 155.65 100.05 156.2
L 100.05 158.65
Q 100.05 159.9 99.95 160.5 99.8 161.1 99.45 161.5 99.05 161.85 98.6 162 98.15 162.2 97.45 162.25
L 97.45 162.5 105.4 162.5 105.4 162.25
Q 104.15 162.25 103.45 161.5 103.05 161.1 102.9 160.55 102.8 159.95 102.8 158.65
L 102.8 155.6
Q 102.8 154.7 102.9 154.4 103.05 154 103.55 153.25
L 106.35 148.9
Q 107.35 147.35 108.25 146.55 108.55 146.25 108.95 146.05 109.25 145.95 109.9 145.85
L 109.9 145.55 104.2 145.55 104.2 145.85
Q 105.15 145.85 105.65 146.3 106.15 146.75 106.15 147.5 106.15 148.2 105.7 148.9
L 102.45 153.95 99.1 148.65
Q 98.8 148.15 98.65 147.75 98.45 147.4 98.45 147.15 98.45 146.4 99.15 146.05 99.45 145.95 100.5 145.85
L 100.5 145.55 92.4 145.55
M 126.75 148.35
Q 125.4 146.8 123.6 146 121.85 145.15 119.95 145.15 118.4 145.15 116.95 145.7 115.5 146.2 114.2 147.2 112.5 148.45 111.6 150.3 110.75 152.1 110.75 154.2 110.75 155.8 111.3 157.25 111.8 158.7 112.85 159.85 114.15 161.3 115.95 162.15 117.7 162.95 119.75 162.95 121.7 162.95 123.55 162.15 125.4 161.25 126.75 159.8 127.8 158.55 128.4 157.05 128.95 155.6 128.95 154 128.95 150.8 126.75 148.35
M 122.1 146
Q 123.1 146.45 123.9 147.45 124.9 148.75 125.4 150.5 125.95 152.3 125.95 154.3 125.95 157.95 124 160.4 123.1 161.55 122.1 162 121.15 162.5 119.8 162.5 118.55 162.5 117.55 162 116.55 161.5 115.7 160.4 113.7 157.95 113.7 154.3 113.7 152.3 114.2 150.5 114.8 148.75 115.75 147.45 116.55 146.45 117.55 146 118.5 145.55 119.8 145.55 121.15 145.55 122.1 146
M 130.55 145.55
L 130.55 145.85
Q 131.25 145.85 131.7 146.05 132.15 146.25 132.45 146.55 132.9 146.95 133 147.6 133.15 148.2 133.15 149.5
L 133.15 157
Q 133.15 158.45 133.2 158.95 133.4 160.55 134.5 161.45 136.2 162.95 139.7 162.95 143.05 162.95 144.85 161.35 145.65 160.65 145.9 159.85 146.15 159 146.15 157.3
L 146.15 149.5
Q 146.15 148.2 146.3 147.6 146.5 146.95 146.85 146.55 147.2 146.25 147.65 146.05 148.1 145.85 148.8 145.85
L 148.8 145.55 143.05 145.55 143.05 145.85
Q 143.75 145.85 144.2 146.05 144.65 146.25 145.05 146.55 145.4 146.95 145.55 147.6 145.65 148.2 145.65 149.5
L 145.65 156.4
Q 145.65 158.3 145.6 158.85 145.55 159.6 145.35 160.1 145.1 160.6 144.6 161.05 143.8 161.75 142.7 162.15 141.45 162.5 140.2 162.5 138.85 162.5 138 162.05 137.1 161.6 136.5 160.65 136.15 160.05 136 159.25 135.9 158.5 135.9 156.8
L 135.9 149.75
Q 135.9 148.2 136 147.65 136.15 147 136.5 146.55 136.85 146.25 137.3 146.05 137.8 145.85 138.5 145.85
L 138.5 145.55 130.55 145.55
M 103.3 54.05
Q 101.7 59.25 102.25 67
L 100.6 67.65
Q 100.45 73.25 101.7 77.7
L 104.25 79.1 104.25 85.8 115.4 94.55 125.2 94.55 136.35 85.8 136.35 79.1 138.9 77.7
Q 140.15 73.25 140 67.65
L 138.35 67
Q 138.9 59.25 137.3 54.05 134.85 43.85 120.6 43.85 105.75 43.85 103.3 54.05
M 224.35 156.05
L 223.65 155.15
Q 219.25 153.25 212.7 153.4 213 158.1 215.8 161.35
L 225.2 161.35
Q 225.2 158.7 224.35 156.05
M 169.3 131.65
L 169.9 133.55
Q 182.2 133.45 191.95 135.2 203.7 145.05 206.25 155.4 207 159.85 202.3 159.8
L 164.85 163.2 156.8 173.1 151.3 175.65 148.75 221.15 193.35 221.15 193.35 225.75 205.75 225.75
Q 206.8 234.75 209.45 234.5
L 221.65 234.5
Q 226.2 234.6 226.7 229.45 228.1 219.75 227.5 210.65
L 228.75 209.65 228.75 180
Q 225.95 173.45 221.15 170.75 217.8 164.5 212 160.55 207.75 149.35 200.85 140.4 198.2 136.45 193 133.05 182.3 131.25 169.3 131.65
M 192.9 191.65
Q 190.85 190.85 191.55 188.65 194.35 183.05 198.45 179.9 207.15 178.05 214.5 171.85 218.4 170 220.4 171.85 223.6 174.4 225.15 179.35 225.75 183 223.15 185.75 214.45 192.8 192.9 191.65 Z"/>
</g>
</defs>

<g id="_____1">
<g transform="matrix( 1.2922515869140625, 0, 0, 1.2922515869140625, -34.9,-43.75) ">
<use xlink:href="#Layer0_0_FILL"/>
</g>
</g>
</svg>
