
<svg xmlns="http://www.w3.org/2000/svg" version="1.1" xmlns:xlink="http://www.w3.org/1999/xlink" preserveAspectRatio="none" x="0px" y="0px" width="300px" height="300px" viewBox="0 0 300 300">
<defs>
<g id="Layer0_0_FILL">
<path fill="#CC1616" stroke="none" d="
M 84.5 170.3
Q 76.95 174.5 75.5 182.35
L 77.35 228.05
Q 77.5 234.8 81.85 234.5
L 93.75 234.5 91.9 188.7
Q 85.85 188.65 79.75 184.2 78.6 175.7 84.5 170.3
M 122.95 109.6
Q 124 109.2 124.9 108.3 126.45 106.75 126.45 104.6 126.45 102.45 124.9 100.9 123.35 99.35 121.2 99.35 119.05 99.35 117.5 100.9 115.95 102.45 115.95 104.6 115.95 106.75 117.5 108.3 118.45 109.25 119.7 109.65
L 116.65 120.6 106.2 99.35 87.05 107.6 71.9 148.3
Q 90.35 171.3 96.4 174.55
L 100.1 255.5 115.15 255.5 121.2 244.1 126.65 255.2 141.9 255.2 145.15 173.7
Q 154.2 170.55 170 148.8
L 154.75 106.95 135.8 99.5 125.4 119.9 122.95 109.6
M 147.35 137.8
Q 152.35 137.8 152.35 142.8
L 152.35 163.5
Q 152.35 168.5 147.35 168.5
L 94.8 168.5
Q 89.8 168.5 89.8 163.5
L 89.8 142.8
Q 89.8 137.8 94.8 137.8
L 147.35 137.8
M 92.7 145.35
L 92.7 145.65
Q 93.25 145.65 93.55 145.75 93.9 145.85 94.2 146.05 94.75 146.35 95.4 147.3
L 99.2 153.05
Q 99.9 154.1 100.15 154.8 100.35 155.45 100.35 156
L 100.35 158.45
Q 100.35 159.7 100.25 160.3 100.1 160.9 99.75 161.3 99.35 161.65 98.9 161.8 98.45 162 97.75 162.05
L 97.75 162.3 105.7 162.3 105.7 162.05
Q 104.45 162.05 103.75 161.3 103.35 160.9 103.2 160.35 103.1 159.75 103.1 158.45
L 103.1 155.4
Q 103.1 154.5 103.2 154.2 103.35 153.8 103.85 153.05
L 106.65 148.7
Q 107.65 147.15 108.55 146.35 108.85 146.05 109.25 145.85 109.55 145.75 110.2 145.65
L 110.2 145.35 104.5 145.35 104.5 145.65
Q 105.45 145.65 105.95 146.1 106.45 146.55 106.45 147.3 106.45 148 106 148.7
L 102.75 153.75 99.4 148.45
Q 99.1 147.95 98.95 147.55 98.75 147.2 98.75 146.95 98.75 146.2 99.45 145.85 99.75 145.75 100.8 145.65
L 100.8 145.35 92.7 145.35
M 127.05 148.15
Q 125.7 146.6 123.9 145.8 122.15 144.95 120.25 144.95 118.7 144.95 117.25 145.5 115.8 146 114.5 147 112.8 148.25 111.9 150.1 111.05 151.9 111.05 154 111.05 155.6 111.6 157.05 112.1 158.5 113.15 159.65 114.45 161.1 116.25 161.95 118 162.75 120.05 162.75 122 162.75 123.85 161.95 125.7 161.05 127.05 159.6 128.1 158.35 128.7 156.85 129.25 155.4 129.25 153.8 129.25 150.6 127.05 148.15
M 122.4 145.8
Q 123.4 146.25 124.2 147.25 125.2 148.55 125.7 150.3 126.25 152.1 126.25 154.1 126.25 157.75 124.3 160.2 123.4 161.35 122.4 161.8 121.45 162.3 120.1 162.3 118.85 162.3 117.85 161.8 116.85 161.3 116 160.2 114 157.75 114 154.1 114 152.1 114.5 150.3 115.1 148.55 116.05 147.25 116.85 146.25 117.85 145.8 118.8 145.35 120.1 145.35 121.45 145.35 122.4 145.8
M 130.85 145.35
L 130.85 145.65
Q 131.55 145.65 132 145.85 132.45 146.05 132.75 146.35 133.2 146.75 133.3 147.4 133.45 148 133.45 149.3
L 133.45 156.8
Q 133.45 158.25 133.5 158.75 133.7 160.35 134.8 161.25 136.5 162.75 140 162.75 143.35 162.75 145.15 161.15 145.95 160.45 146.2 159.65 146.45 158.8 146.45 157.1
L 146.45 149.3
Q 146.45 148 146.6 147.4 146.8 146.75 147.15 146.35 147.5 146.05 147.95 145.85 148.4 145.65 149.1 145.65
L 149.1 145.35 143.35 145.35 143.35 145.65
Q 144.05 145.65 144.5 145.85 144.95 146.05 145.35 146.35 145.7 146.75 145.85 147.4 145.95 148 145.95 149.3
L 145.95 156.2
Q 145.95 158.1 145.9 158.65 145.85 159.4 145.65 159.9 145.4 160.4 144.9 160.85 144.1 161.55 143 161.95 141.75 162.3 140.5 162.3 139.15 162.3 138.3 161.85 137.4 161.4 136.8 160.45 136.45 159.85 136.3 159.05 136.2 158.3 136.2 156.6
L 136.2 149.55
Q 136.2 148 136.3 147.45 136.45 146.8 136.8 146.35 137.15 146.05 137.6 145.85 138.1 145.65 138.8 145.65
L 138.8 145.35 130.85 145.35
M 103.6 53.85
Q 102 59.05 102.55 66.8
L 100.9 67.45
Q 100.75 73.05 102 77.5
L 104.55 78.9 104.55 85.6 115.7 94.35 125.5 94.35 136.65 85.6 136.65 78.9 139.2 77.5
Q 140.45 73.05 140.3 67.45
L 138.65 66.8
Q 139.2 59.05 137.6 53.85 135.15 43.65 120.9 43.65 106.05 43.65 103.6 53.85
M 224.65 155.85
L 223.95 154.95
Q 219.55 153.05 213 153.2 213.3 157.9 216.1 161.15
L 225.5 161.15
Q 225.5 158.5 224.65 155.85
M 169.6 131.45
L 170.2 133.35
Q 182.5 133.25 192.25 135 204 144.85 206.55 155.2 207.3 159.65 202.6 159.6
L 165.15 163 157.1 172.9 151.6 175.45 149.05 220.95 193.65 220.95 193.65 225.55 206.05 225.55
Q 207.1 234.55 209.75 234.3
L 221.95 234.3
Q 226.5 234.4 227 229.25 228.4 219.55 227.8 210.45
L 229.05 209.45 229.05 179.8
Q 226.25 173.25 221.45 170.55 218.1 164.3 212.3 160.35 208.05 149.15 201.15 140.2 198.5 136.25 193.3 132.85 182.6 131.05 169.6 131.45
M 193.2 191.45
Q 191.15 190.65 191.85 188.45 194.65 182.85 198.75 179.7 207.45 177.85 214.8 171.65 218.7 169.8 220.7 171.65 223.9 174.2 225.45 179.15 226.05 182.8 223.45 185.55 214.75 192.6 193.2 191.45 Z"/>
</g>
</defs>

<g id="_____1">
<g transform="matrix( 1.2379608154296875, 0, 0, 1.2379608154296875, -35.8,-35.55) ">
<use xlink:href="#Layer0_0_FILL"/>
</g>
</g>
</svg>
