
<svg xmlns="http://www.w3.org/2000/svg" version="1.1" xmlns:xlink="http://www.w3.org/1999/xlink" preserveAspectRatio="none" x="0px" y="0px" width="200px" height="200px" viewBox="0 0 200 200">
<defs>
<g id="Layer0_0_FILL">
<path fill="#00AEEF" stroke="none" d="
M 116.05 117.1
Q 116.05 111.7 112.2 107.8 108.35 103.95 102.9 103.95 97.45 103.95 93.6 107.8 89.75 111.7 89.75 117.1 89.75 122.6 93.6 126.45 97.45 130.25 102.9 130.25 108.35 130.25 112.2 126.45 116.05 122.6 116.05 117.1
M 137 27.55
Q 137 24.4 134.75 22.15 132.5 19.95 129.4 19.95 126.2 19.95 123.95 22.15 121.75 24.4 121.75 27.55
L 121.75 34.25
Q 121.75 38.2 120.25 41.8 118.8 45.3 116.15 47.95 113.55 50.6 110.15 52.05 106.7 53.6 102.9 53.6 99.1 53.6 95.6 52.05 92.2 50.6 89.6 47.95 86.95 45.3 85.5 41.8 84 38.2 84 34.25
L 84 27.55
Q 84 24.4 81.8 22.15 79.55 19.95 76.4 19.95 73.3 19.95 71.05 22.15 68.8 24.4 68.8 27.55
L 68.8 34.25
Q 68.8 41.2 71.5 47.65 74.05 53.85 78.75 58.6 82.1 62.05 86.25 64.4 90.55 66.8 95.25 67.9
L 95.25 83.9
Q 90.55 85.05 86.25 87.45 82.1 89.8 78.75 93.25 74.05 98 71.5 104.2 68.8 110.65 68.8 117.6
L 68.8 124.3
Q 68.8 127.4 71.05 129.7 73.3 131.9 76.4 131.9 79.55 131.9 81.8 129.7 84 127.45 84 124.3
L 84 117.6
Q 84 113.65 85.5 110 86.95 106.55 89.6 103.85 92.2 101.2 95.6 99.75 99.1 98.25 102.9 98.25 106.7 98.25 110.15 99.75 113.55 101.2 116.15 103.85 118.8 106.55 120.25 110 121.75 113.65 121.75 117.6
L 121.75 124.3
Q 121.75 127.45 123.95 129.7 126.2 131.9 129.4 131.9 132.5 131.9 134.75 129.7 137 127.45 137 124.3
L 137 117.6
Q 137 110.65 134.3 104.2 131.75 97.95 127 93.25 123.7 89.8 119.5 87.45 115.25 85.05 110.5 83.9
L 110.5 67.9
Q 115.25 66.8 119.5 64.4 123.7 62.05 127 58.6 131.75 53.85 134.3 47.65 137 41.2 137 34.25
L 137 27.55
M 69.15 154.2
Q 68.85 152.95 67.7 152.3 66.95 151.8 66.15 151.8 65.3 151.8 64.55 152.25 63.85 152.65 63.4 153.4
L 55.5 167 47.55 153.4
Q 47.15 152.65 46.35 152.25 45.6 151.8 44.7 151.8 43.45 151.9 42.55 152.85 41.7 153.8 41.75 155.1 41.75 155.9 42.2 156.55
L 52.35 174.05 52.35 184.35
Q 52.35 185.65 53.25 186.55 54.2 187.5 55.5 187.5 56.7 187.5 57.65 186.6 58.55 185.75 58.6 184.55
L 58.6 174.05 68.8 156.55
Q 69.5 155.45 69.15 154.2
M 109.95 151.9
Q 108.7 151.9 107.8 152.8 106.85 153.65 106.8 155 106.8 156.25 107.7 157.2 108.6 158.1 109.9 158.15
L 117.35 158.15 117.35 184.1
Q 117.35 185.45 118.25 186.35 119.15 187.3 120.45 187.3 121.75 187.3 122.65 186.4 123.55 185.5 123.55 184.2
L 123.55 158.15 131 158.15
Q 132.35 158.15 133.25 157.25 134.2 156.35 134.2 155.05 134.25 153.75 133.35 152.85 132.4 151.9 131.1 151.9
L 109.95 151.9
M 76.5 156.75
Q 74.45 159.2 73.4 162.6 72.4 165.8 72.4 169.65 72.4 173.45 73.4 176.7 74.45 180.05 76.5 182.55 78.6 185.1 81.65 186.55 84.85 188 88.5 188 92.15 188 95.25 186.55 98.35 185.1 100.45 182.55 102.55 180.05 103.55 176.7 104.55 173.45 104.55 169.65 104.55 165.8 103.55 162.6 102.55 159.2 100.45 156.75 98.35 154.15 95.25 152.7 92.15 151.3 88.5 151.3 84.85 151.3 81.65 152.7 78.6 154.15 76.5 156.75
M 78.65 169.65
Q 78.65 166.8 79.35 164.45 80.05 162.25 81.3 160.7 82.6 159.15 84.3 158.35 86.05 157.55 88.5 157.55 90.9 157.55 92.7 158.35 94.35 159.15 95.65 160.7 96.9 162.25 97.6 164.45 98.35 166.8 98.35 169.65 98.35 172.45 97.6 174.8 96.9 177 95.65 178.6 94.35 180.15 92.7 180.9 90.9 181.7 88.5 181.7 86.05 181.7 84.3 180.9 82.6 180.15 81.3 178.6 80.05 177 79.35 174.8 78.65 172.45 78.65 169.65
M 163.1 183.1
L 163.05 183 151.1 154.1
Q 150.8 153.05 150 152.45 149.15 151.75 148.1 151.75
L 148 151.75
Q 146.95 151.8 146.1 152.45 145.35 153.1 145.05 154.1
L 133.15 183
Q 132.6 184.2 133.05 185.4 133.55 186.6 134.75 187.1 135.9 187.65 137.15 187.15 138.35 186.65 138.85 185.5
L 138.9 185.4 141.35 179.35 154.8 179.35 157.3 185.4
Q 157.75 186.6 158.95 187.1 160.1 187.65 161.3 187.15 162.55 186.7 163.05 185.5 163.55 184.3 163.1 183.1
M 152.25 173.15
L 143.95 173.15 148.05 163.1 152.25 173.15 Z"/>
</g>
</defs>

<g id="yota_logo_svg">
<g transform="matrix( 1, 0, 0, 1, 0,-1.2) ">
<use xlink:href="#Layer0_0_FILL"/>
</g>
</g>
</svg>
