
<svg xmlns="http://www.w3.org/2000/svg" version="1.1" xmlns:xlink="http://www.w3.org/1999/xlink" preserveAspectRatio="none" x="0px" y="0px" width="200px" height="150px" viewBox="0 0 200 150">
<defs>
<g id="Layer0_0_MEMBER_0_FILL">
<path fill="#FFFFFF" stroke="none" d="
M 59.05 60.3
L 57.75 64 64.15 56 59.05 60.3
M 80.6 62.1
L 72.05 50.65 76.2 59 73.45 61.4 77.4 61.4 74.3 66.85 80.6 62.1
M 100.7 61.25
L 100.7 64.6 105.65 69.1 100.7 61.25
M 108.55 71.25
L 106.25 65.3 116.75 74.45
Q 119.4 69.15 119.4 60.65 119.4 41.2 105.7 27.5 92 13.85 72.6 13.85 57.75 13.85 46.2 21.9 42.7 24.35 39.5 27.5 25.8 41.2 25.8 60.65 25.8 62.1455078125 25.95 63.25
L 28.8 64.6 41.2 61.15 37.65 69 45.4 61.45 44.4 65.3 52.55 54.35 47.45 57.45 53.75 49.7 57.6 53.75 55.05 56.9 61.25 53.75 54.9 60.35 54.9 66.15 57 60.75 65.15 52.95 68.25 60.9 67.3 51.95 70.7 48.65 68.2 48.65 71.35 45.8 81.5 59 88.45 63.7 86 60.45 90.5 63 92.95 66.6 98 60.35 95.3 66.55 100.45 59 108.55 71.25 Z"/>
</g>

<g id="Layer0_0_MEMBER_1_FILL">
<path fill="#93A7A8" stroke="none" d="
M 119.1 104.8
Q 120.25 106.4 120.5 108.95
L 122.25 108.95
Q 122 106.65 121.25 105.9 121.25 103.6 121.6 102.25 120.5 104.6 119.1 104.8
M 112.4 106.25
Q 112.95 106.85 112.75 109
L 114.9 109.05
Q 113.8 107.05 113.6 104.45
L 112.4 106.25 Z"/>

<path fill="#CFDCE0" stroke="none" d="
M 113.65 100
Q 113.45 103.45 111.45 105.15 111.6 107.3 109.45 109
L 111.3 109
Q 112.05 107.85 112.4 106.25
L 113.6 104.45 113.65 100
M 118.55 101.1
Q 118.45 103.35 117.85 104.85 118.2 105.1 118.15 106.05 118.85 105.65 119.1 104.8 119.15 102.4 118.55 101.1
M 124.85 108.95
L 123 104.1
Q 123.05 99.95 122.3 97.7 122.35 100 121.6 102.25 121.25 103.6 121.25 105.9 122 106.65 122.25 108.95
L 124.85 108.95
M 115.1 96.7
Q 114.8 96.9 114.5 97.15 116.4 98.15 117.2 101.5 117.1 99.05 116 97.35 116.55 97.1 116.25 96.5 116.15 96.3 115.95 96.15
L 115.8 95.95
Q 113.7 94.4 112 91.85 112.15 92.5 112.6 93.35
L 115.1 96.7 Z"/>

<path fill="#FFFFFF" stroke="none" d="
M 118.7 92.7
Q 118.85 92.4 118.7 92.15 118.45 91.7 118.1 91.7 117.95 91.7 117.85 91.75 117.7 91.8 117.55 91.75 117.4 91.7 116.9 91.45 116.45 91.25 115.95 91.3 115.45 91.35 115.1 91.2 114.75 91.05 114.45 90.9 113.5 90.3 112.6 90.05 112.25 90.05 112.15 90.6 111.85 91.1 112 91.85 113.7 94.4 115.8 95.95
L 115.95 96.15
Q 116.15 96.3 116.25 96.5 116.55 97.1 116 97.35 117.1 99.05 117.2 101.5 116.4 98.15 114.5 97.15 113.85 97.75 113.25 98.6 112.2 99.15 111.25 99.75 111.1 99.85 109.25 101.15 108.9 101.35 108.6 101.8 108.2 102.45 108.1 103.25 108 103.85 108.1 104.85 108.2 106 108.2 106.35 107.7 107.2 107.55 109
L 109.45 109
Q 111.6 107.3 111.45 105.15 113.45 103.45 113.65 100
L 113.6 104.45
Q 113.8 107.05 114.9 109.05
L 119.15 109.05
Q 118.9 107.45 118.15 106.05 118.2 105.1 117.85 104.85 118.45 103.35 118.55 101.1 119.15 102.4 119.1 104.8 120.5 104.6 121.6 102.25 122.35 100 122.3 97.7 121.5 96.5 120.6 95.45 119.55 94.2 118.35 93.1 118.55 93 118.7 92.7 Z"/>
</g>

<g id="Layer0_0_MEMBER_1_MEMBER_0_FILL">
<path fill="#515761" stroke="none" d="
M 292.1 215.15
Q 292.85 217.05 298.05 217.95 304.15 218.95 307.8 222.6 305.8 217.35 303.4 214.9 301.4 212.85 298.3 212.05 294.35 210.95 292.1 215.15 Z"/>
</g>

<g id="Layer0_0_MEMBER_2_FILL">
<path fill="#FFFFFF" stroke="none" d="
M 480.15 563
Q 511.2 576.9 532.6 566.3 507.35 573.65 480.15 563
M 428.45 557.2
Q 427.8 557.8 428.5 557.85 448.75 554.5 454 558.9 450.45 553.8 432.3 556.55 447.5 548.5 477.35 557.85 463.55 550.2 438.05 551.05 419.4 552.3 401.35 562 422.3 552.9 440.05 552.95 432.1 554.75 428.45 557.2 Z"/>
</g>

<g id="_______7_0_Layer0_0_FILL">
<path fill="#FFFFFF" stroke="none" d="
M 23.75 17.8
Q 23.05 17.8 22.5 18.15 21.9 18.5 21.45 19.05 21.05 19.6 20.75 20.25 20.55 20.95 20.55 21.6 20.35 21.9 20.2 22.25 20.05 22.55 20 22.8 19.9 23.1 19.85 23.35 19.65 24.6 19.8 25.85 20 27.1 20.6 28.05 21.2 29 22.15 29.45 23.15 29.9 24.55 29.6 25.35 29.35 26.05 28.7 26.6 28.2 27.15 27.2 27.7 26.25 27.9 24.6 27.95 24.05 27.95 23.55 27.95 23.05 27.95 22.55 28.3 21.95 28.6 21.1 28.7 20.7 28.5 20.3 28.45 20.25 28.35 20.25 28.3 20.3 28.3 20.35 28.25 20.55 28.1 20.85 27.95 21.1 27.8 21.45 27.35 19.6 26.25 18.65 25.15 17.7 23.75 17.8
M 22.9 20.25
Q 23.3 19.2 24.15 19.1 24.95 19.05 25.65 19.95 26.35 20.85 26.45 22.9 26 23.2 25.5 23.35 25 23.5 24.35 23.45 24.05 23.45 23.85 23.35 23.65 23.25 23.4 23.1 23.2 23 23 22.7 23.2 22.05 23.4 21.55 23.65 21 23.85 20.7 23.9 20.55 23.85 20.45 23.8 20.3 23.7 20.3 23.45 20.25 23.3 20.25 23.05 20.25 22.9 20.25
M 22.8 24.35
Q 23.6 24.65 24.55 24.6 25.5 24.5 26.35 24 26.35 24.3 26.3 24.6 26.25 24.8 26.25 25.05 26.2 25.35 26.15 25.55 25.95 26.55 25.7 27.1 25.45 27.65 25.15 27.9 24.9 28.2 24.7 28.25 24.5 28.35 24.35 28.35 23.7 28.55 23.35 28.1 22.95 27.65 22.85 27 22.7 26.3 22.7 25.55 22.75 24.8 22.8 24.35
M 20.95 16.4
Q 21.1 14.85 20.9 13.45 20.6 12 19.85 10.9 19.1 9.8 17.75 9.1 16.4 8.35 14.4 8.3 12.15 8.2 10.35 9.05 8.55 9.9 7.35 11.35 6.15 12.8 5.6 14.65 5.05 16.5 5.2 18.45 5.25 18.95 5.55 19.25 5.85 19.55 6.4 19.95 6.95 20.3 7.7 20.35 7.95 20.45 8.15 20.25 8.35 20.05 8.35 19.8 8.3 19.25 8.3 18.3 8.3 17.4 8.45 16.25 8.6 15.15 8.95 14.05 9.3 12.9 9.95 11.95 10.6 11.05 11.65 10.45 12.65 9.8 14.15 9.8 15.2 9.8 16 10.45 16.7 10.95 17.2 12.1 17.7 13.25 17.6 15.4 17.45 17.05 16.95 18.45 16.5 19.7 15.65 20.85 14.75 21.95 13.2 22.4 13.4 20.25 13.65 18.1 13.85 15.95 14.1 13.8 14.15 13.6 14 13.45 13.85 13.3 13.65 13.35 13.2 13.45 12.5 13.65 11.8 13.9 11.1 14.4 10 15.15 9.95 16.55 9.95 17.2 9.9 18.3 9.85 19.4 9.85 20.75 9.8 22.1 9.8 23.55 9.8 25.05 9.85 26.5
L 9.85 28.4
Q 9.85 29.15 9.85 30 9.9 30.9 9.95 31.55 9.95 31.75 10.15 32 10.45 32.3 11 32.7 11.6 33.15 12.6 33.35 12.75 33.4 12.85 33.3 12.95 33.25 12.9 33.15 12.8 31.6 12.85 30 12.9 28.4 12.95 26.7 13 25.95 13.05 25.2 13.05 24.5 13.15 23.7 14.5 23.65 15.6 23.25 16.7 22.9 17.5 22.4 18.3 21.85 18.85 21.2 19.45 20.55 19.8 19.9 20.75 18.3 20.95 16.4
M 49.05 14.85
Q 48.85 14.55 48.45 14.2 48.05 13.9 47.55 14.35 47.25 14.6 47.25 14.95 47.3 15.35 47.5 15.75 47.7 16.15 48.05 16.7 48.6 17.55 48.7 18.2 48.75 18.85 48.7 19.6 48.7 20.2 48.5 20.9 48.35 21.6 48.15 22.25 47.9 22.9 47.7 23.4 47.5 23.95 47.4 24.15 47.3279296875 24.2943359375 47.35 24.35 47.368359375 24.4041015625 47.35 24.45 47.1 24.9 46.75 25.5 46.45 26.1 46 26.7 45.6 27.3 45.15 27.75 45.05 27.7 45.05 27.05 45 26.45 45.05 25.5 45.05 24.5 45.1 23.35 45.15 22.2 45.25 21.1 45.35 20.05 45.4 19.15 45.45 18.25 45.5 17.8 45.5 17.55 45.15 17.55 43.7 17.55 42.9 18.2 42.05 18.75 41.75 19.15 41.3 18.6 40.45 18.1 39.6 17.55 38.25 17.7 37.45 17.9 36.75 18.45 36.15 18.9 35.55 19.8 35 20.7 34.65 22.25 34.4169921875 23.45390625 34.55 24.5 34.3130859375 24.96328125 34 25.5 33.65 26.1 33.25 26.7 32.9 27.3 32.45 27.75 32.35 27.8 32.35 27.2 32.35 26.6 32.4 25.9 32.4 24.1 32.45 22.35 32.5 20.6 32.65 18.8 32.8 17.05 33 15.25 33.2 13.4 33.45 11.4 33.45 11.2 33.3 11 33.15 10.9 33 10.9 32.5 11 31.8 11.25 31.1 11.45 30.45 11.9 29.9 12.3 29.6 12.85 29.3 13.4 29.3 14.05 29.25 15.15 29.25 16.75 29.2 18.3 29.2 20.1 29.2 21.9 29.3 23.8 29.35 25.65 29.55 27.2 29.65 27.95 29.85 28.55 30 29 30.35 29.4 30.65 29.75 31.25 29.7 32.15 29.55 33.15 28.25 33.8767578125 27.3416015625 34.8 25.6 35.1111328125 26.63515625 35.6 27.45 36.2 28.45 37.05 29.05 37.9 29.65 38.7 29.65 39.85 29.75 40.65 29.25 41.4 28.75 41.85 28.05 42 28.55 42.2 28.9 42.35 29.3 42.65 29.45 43.25 29.75 43.85 29.7 44.45 29.65 45.1 29.1 45.8 28.55 46.55 27.35 47.35 26.2 48.25 24.15 48.315625 23.9751953125 48.25 23.85 48.9453125 22.302734375 49.3 21.15 49.65 19.9 49.7 19 49.75 18.75 49.75 18.4 49.75 18.1 49.75 17.75 49.75 17.35 49.7 16.95 50.35 17.3 51.15 17.5 50.9 18.3 50.6 19.9 50.3 21.5 50.2 23.3 50.05 25.05 50.4 26.75 50.7 28.45 51.85 29.45 52.35 29.85 52.95 29.85 53.55 29.8 54.25 29.2 54.95 28.65 55.75 27.4 56.55 26.2 57.45 24.15 57.6 23.75 57.15 23.6 56.95 23.5 56.85 23.7 56.75 23.95 56.55 24.4 56.3 24.9 55.95 25.5 55.6 26.1 55.2 26.7 54.8 27.3 54.35 27.75 53.95 27.65 53.85 26.75 53.75 25.9 53.85 24.7 53.95 23.45 54.15 22.05 54.35 20.65 54.6 19.5 54.8 18.6 54.3 17.8 53.75 17 52.85 16.9 51.95 16.75 51.3 16.55 50.6 16.35 50.2 16.15 49.8 15.95 49.6 15.75 49.4 15.6 49.4 15.55 49.25 15.15 49.15 15.05 49.1 14.95 49.05 14.85
M 40.5 19.25
Q 40.9 19.5 41.15 19.85 41.3 20.2 41.4 20.5 41.5 20.95 41.45 21.3 41.4 22.4 41.4 23.9 41.4 25.35 41.55 26.6 41.55 26.75 41.5 27 41.4 27.25 41.25 27.5 41.05 27.8 40.7 28.1 40.4 28.35 39.9 28.55 39.45 28.75 39 28.4 38.55 28.1 38.4 27.6 38.15 27.05 37.95 26.2 37.75 25.35 37.65 23.9 37.65 22.65 37.9 21.7 38.2 20.75 38.65 20.15 39.05 19.55 39.6 19.3 40.1 19.1 40.5 19.25
M 78.15 10.1
L 77.75 9.35
Q 77.5 8.85 76.9 8.75 72.75 8.1 70.15 8.2 67.65 8.3 66.75 8.5 66.25 8.55 65.8 8.9 65.4 9.3 65.15 9.75 64.95 10.25 65 10.75 65.05 11 65.25 11.15 65.45 11.3 65.75 11.25 66.55 10.9 67.35 10.75 68.15 10.55 69 10.4 68.95 10.55 68.9 10.9 68.15 15.75 67.8 20.55 67.8 20.75 67.55 23.75 67.45 24.9 67.5 26.5 67.6 27.35 67.85 27.95 68.05 28.6 68.65 29.1 69.75 30 71.15 30.35 71.35 30.4 71.5 30.2 71.7 30.05 71.65 29.85 71.25 26.25 71.2 22.15 71.15 16.25 71.75 10.05 74.1 9.9 75.8 10 77.55 10.15 78.05 10.25 78.25 10.25 78.15 10.1
M 102.35 18.2
Q 102.1 17.8 101.6 17.8 100.95 17.8 100.55 18.45 100.15 19.15 100.1 20.05 100.05 20.9 100.35 21.7 100.7 22.45 101.5 22.7 101.35 23.5 101.15 24.4 100.95 25.3 100.65 26.05 100.4 26.85 100.1 27.4 99.8 28 99.5 28.15 99.4 28.2 99.25 28 99.1 27.75 99 27.35 98.6 24.95 98.55 22.65 98.45 20.35 98.65 18.05 98.65 17.8 98.4 17.7 97.05 17.7 96.05 18.5 95.7 18.75 95.5 19.2 95.3 19.65 95.3 20.1 95.15 22.25 95.55 24.65 95.3 25.05 95.05 25.5 94.75 26.1 94.3 26.7 93.9 27.3 93.45 27.75 93.35 27.7 93.35 27.05 93.3 26.45 93.35 25.5 93.35 24.5 93.4 23.35 93.45 22.2 93.55 21.1 93.65 20.05 93.7 19.15 93.75 18.25 93.8 17.8 93.8 17.55 93.45 17.55 92 17.55 91.2 18.2 90.35 18.75 90.05 19.15 89.6 18.6 88.75 18.1 87.9 17.55 86.55 17.7 85.75 17.9 85.05 18.45 84.45 18.9 83.85 19.8 83.3 20.7 82.95 22.25 82.7 23.5 82.85 24.6 82.65 25 82.35 25.5 82 26.1 81.6 26.7 81.2 27.3 80.75 27.75 80.35 27.65 80.25 26.75 80.15 25.9 80.25 24.7 80.35 23.45 80.55 22.05 80.75 20.65 81 19.5 81.2 18.6 80.7 17.8 80.15 17 79.25 16.9 78.35 16.75 77.7 16.55 77 16.35 76.6 16.15 76.2 15.95 76 15.75 75.8 15.6 75.8 15.55 75.65 15.15 75.55 15.05 75.5 14.95 75.45 14.85 75.25 14.55 74.85 14.2 74.45 13.9 73.95 14.35 73.65 14.6 73.65 14.95 73.7 15.35 73.9 15.75 74.1 16.15 74.45 16.7 75 17.55 75.1 18.2 75.15 18.85 75.1 19.6 75.1 20.2 74.9 20.9 74.75 21.6 74.55 22.25 74.3 22.9 74.1 23.4 73.9 23.95 73.8 24.15 73.7 24.35 73.85 24.4 73.9 24.45 73.95 24.45 74.1 24.6 74.25 24.5 74.45 24.45 74.5 24.25 75.3 22.45 75.7 21.15 76.05 19.9 76.1 19 76.15 18.75 76.15 18.4 76.15 18.1 76.15 17.75 76.15 17.35 76.1 16.95 76.75 17.3 77.55 17.5 77.3 18.3 77 19.9 76.7 21.5 76.6 23.3 76.45 25.05 76.8 26.75 77.1 28.45 78.25 29.45 78.75 29.85 79.35 29.85 79.95 29.8 80.65 29.2 81.35 28.65 82.15 27.4 82.6 26.7 83.15 25.7 83.45 26.7 83.9 27.45 84.5 28.45 85.35 29.05 86.2 29.65 87 29.65 88.15 29.75 88.95 29.25 89.7 28.75 90.15 28.05 90.3 28.55 90.5 28.9 90.65 29.3 90.95 29.45 91.55 29.75 92.15 29.7 92.75 29.65 93.4 29.1 94.1 28.55 94.85 27.35 95.3 26.7 95.75 25.85 95.85 26.25 96 26.65 96.2 27.4 96.65 28.2 97.1 29 97.75 29.35 98.05 29.55 98.35 29.65 98.65 29.75 99.1 29.7 99.75 29.6 100.4 28.8 100.95 28.15 101.5 26.7 102.05 25.3 102.5 22.7 103.1 22.5 103.4 22 103.7 21.5 103.85 21 104.05 20.25 103.65 19.65
L 103.6 19.55
Q 103.45 19.4 103.35 19.65 103.3 19.95 103.15 20.5 102.95 21.05 102.65 21.4 102.7 21.05 102.75 20.45 102.75 19.85 102.65 19.25 102.6 18.65 102.35 18.2
M 101.35 20.05
Q 101.4 19.9 101.6 19.9 101.75 19.9 101.75 20.4 101.75 20.85 101.7 21.6 101.5 21.55 101.35 21.25 101.25 20.95 101.3 20.3 101.3 20.2 101.35 20.05
M 86.2 21.7
Q 86.5 20.75 86.95 20.15 87.35 19.55 87.9 19.3 88.4 19.1 88.8 19.25 89.2 19.5 89.45 19.85 89.6 20.2 89.7 20.5 89.8 20.95 89.75 21.3 89.7 22.4 89.7 23.9 89.7 25.35 89.85 26.6 89.85 26.75 89.8 27 89.7 27.25 89.55 27.5 89.35 27.8 89 28.1 88.7 28.35 88.2 28.55 87.75 28.75 87.3 28.4 86.85 28.1 86.7 27.6 86.45 27.05 86.25 26.2 86.05 25.35 85.95 23.9 85.95 22.65 86.2 21.7
M 117.6 11.4
Q 117.6 11.2 117.45 11 117.3 10.9 117.15 10.9 116.65 11 115.95 11.25 115.25 11.45 114.6 11.9 114.05 12.3 113.75 12.85 113.45 13.4 113.45 14.05 113.4 15.15 113.4 16.75 113.35 18.3 113.35 20.1 113.35 21.9 113.45 23.8 113.45 24.1 113.5 24.45 113.35 24.65 113.25 24.9 112.8 25.75 112.2 26.6 111.75 27.25 111.2 27.7 110.75 28.1 110.15 28.4 109.55 28.7 108.9 28.65 108 28.55 107.6 27.8 107.15 27 107.05 26.1 106.9 25.1 106.95 23.85 106.95 23.75 106.95 23.6 107 23.5 107 23.4 108.25 23.6 109.1 23.35 109.95 23.1 110.45 22.7 111 22.25 111.3 21.55 111.6 20.9 111.55 20.4 111.55 19.9 111.35 19.55 111.15 19.1 110.8 18.75 110.4 18.3 109.75 18.05 109.1 17.75 108.15 17.8 107.35 17.9 106.65 18.35 106 18.75 105.35 19.6 104.65 20.4 104.25 21.9 103.8 23.4 103.95 24.7 104.1 26 104.6 27.05 105.1 28.05 105.8 28.75 106.55 29.45 107.3 29.65 108.6 30.05 109.65 29.7 110.7 29.35 111.4 28.8 112.2 28.1 112.85 27.1 113.2 26.6 113.55 25.9 113.6 26.55 113.7 27.2 113.8 27.95 114 28.55 114.15 29 114.5 29.4 114.8 29.75 115.4 29.7 116.3 29.55 117.3 28.25 118.3 27 119.65 24.15 119.7 23.95 119.65 23.85 119.6 23.65 119.4 23.6
L 119.3 23.6
Q 119.15 23.5 119.05 23.7 118.95 23.95 118.75 24.4 118.5 24.9 118.15 25.5 117.8 26.1 117.4 26.7 117.05 27.3 116.6 27.75 116.5 27.8 116.5 27.2 116.5 26.6 116.55 25.9 116.55 24.1 116.6 22.35 116.65 20.6 116.8 18.8 116.95 17.05 117.15 15.25 117.35 13.4 117.6 11.4
M 110.5 19.4
Q 110.7 19.6 110.8 19.95 110.85 20.25 110.75 20.65 110.7 21.05 110.3 21.55 110.05 21.95 109.6 22.15 109.25 22.4 108.8 22.5 108.35 22.6 107.95 22.6 107.55 22.6 107.15 22.55 107.45 21.6 107.9 20.9 108.35 20.2 108.85 19.75 109.35 19.35 109.8 19.25 110.25 19.1 110.5 19.4 Z"/>
</g>

<g id="Layer0_0_MEMBER_4_FILL">
<path fill="#FFFFFF" stroke="none" d="
M 380.75 144.9
L 399.25 132.75 406.55 174.55 413.9 132.75 432.4 144.9 422.8 125.95 459.95 119.85 422.8 113.75 432.4 94.8 413.9 106.95 406.55 65.15 399.25 106.95 380.75 94.8 390.35 113.75 353.15 119.85 390.35 125.95 380.75 144.9 Z"/>
</g>
</defs>

<g id="_____1">
<g transform="matrix( 1.44158935546875, 0, 0, 1.4420318603515625, -5.4,-19.95) ">
<use xlink:href="#Layer0_0_MEMBER_0_FILL"/>
</g>

<g transform="matrix( 1.63885498046875, 0, 0, 1.6393585205078125, -32.5,-34.05) ">
<use xlink:href="#Layer0_0_MEMBER_1_FILL"/>
</g>

<g transform="matrix( 0.088897705078125, 0, 0, 0.0889129638671875, 131,97.95) ">
<use xlink:href="#Layer0_0_MEMBER_1_MEMBER_0_FILL"/>
</g>

<g transform="matrix( 1.44158935546875, 0, 0, 1.4420318603515625, -578.6,-676.4) ">
<use xlink:href="#Layer0_0_MEMBER_2_FILL"/>
</g>

<g transform="matrix( 1.739471435546875, 0, 0, 1.7400054931640625, -8.1,59.95) ">
<g transform="matrix( 1, 0, 0, 1, 0,0) ">
<use xlink:href="#_______7_0_Layer0_0_FILL"/>
</g>
</g>

<g transform="matrix( 0.15020751953125, 0, 0, 0.1502532958984375, 39.45,89.05) ">
<use xlink:href="#Layer0_0_MEMBER_4_FILL"/>
</g>
</g>
</svg>
